# Made in Blockbench 5.0.7
mtllib ferrought_cage.mtl

o plane
v 0.5 2.125 0.5
v 0.75 2.125 0.06698729810778076
v 0.5 1.125 0.49999999999999994
v 0.75 1.125 0.06698729810778065
vt 0.5 0.5625
vt 0.25 0.5625
vt 0.25 0.0625
vt 0.5 0.0625
vn -0.8660254037844388 5.551115123125784e-17 -0.5000000000000001
usemtl m_2bc79ad4-2ad5-8946-4dff-8714bc79b0d7
f 1/1/1 2/2/1 4/3/1 3/4/1
o plane
v 0.5000000000000001 2.125 0.5000000000000001
v 1 2.125 0.5000000000000001
v 0.4999999999999999 1.125 0.4999999999999999
v 0.9999999999999999 1.125 0.4999999999999999
vt 0.5 0.5625
vt 0.25 0.5625
vt 0.25 0.0625
vt 0.5 0.0625
vn 4.930380657631324e-32 2.220446049250313e-16 -1
usemtl m_2bc79ad4-2ad5-8946-4dff-8714bc79b0d7
f 5/5/2 6/6/2 8/7/2 7/8/2
o plane
v 0.5 2.125 0.5
v 0.75 2.125 0.9330127018922194
v 0.49999999999999994 1.125 0.49999999999999994
v 0.75 1.125 0.9330127018922194
vt 0.5 0.5625
vt 0.25 0.5625
vt 0.25 0.0625
vt 0.5 0.0625
vn 0.8660254037844388 -5.4514770895734845e-17 -0.5
usemtl m_2bc79ad4-2ad5-8946-4dff-8714bc79b0d7
f 9/9/3 10/10/3 12/11/3 11/12/3
o plane
v 0.5 2.125 0.49999999999999994
v 0.25000000000000006 2.125 0.9330127018922194
v 0.49999999999999994 1.125 0.5
v 0.24999999999999994 1.125 0.9330127018922194
vt 0.5 0.5625
vt 0.25 0.5625
vt 0.25 0.0625
vt 0.5 0.0625
vn 0.8660254037844388 -5.4514770895734845e-17 0.5
usemtl m_2bc79ad4-2ad5-8946-4dff-8714bc79b0d7
f 13/13/4 14/14/4 16/15/4 15/16/4
o plane
v 0.5000000000000001 2.125 0.4999999999999999
v 1.1102230246251565e-16 2.125 0.4999999999999999
v 0.4999999999999999 1.125 0.5000000000000001
v -1.1102230246251565e-16 1.125 0.5000000000000001
vt 0.5 0.5625
vt 0.25 0.5625
vt 0.25 0.0625
vt 0.5 0.0625
vn 4.930380657631324e-32 2.220446049250313e-16 1
usemtl m_2bc79ad4-2ad5-8946-4dff-8714bc79b0d7
f 17/17/5 18/18/5 20/19/5 19/20/5
o plane
v 0.5 2.125 0.49999999999999994
v 0.25 2.125 0.06698729810778065
v 0.5 1.125 0.5
v 0.25 1.125 0.06698729810778076
vt 0.5 0.5625
vt 0.25 0.5625
vt 0.25 0.0625
vt 0.5 0.0625
vn -0.8660254037844388 5.551115123125784e-17 0.5000000000000001
usemtl m_2bc79ad4-2ad5-8946-4dff-8714bc79b0d7
f 21/21/6 22/22/6 24/23/6 23/24/6
o plane
v 0.28125000000000006 1.125 0.8788861141556918
v 0.031250000000000056 1.125 1.3118988160479113
v 0.28124999999999994 0.12500000000000006 0.8788861141556921
v 0.031249999999999944 0.1250000000000001 1.3118988160479113
vt 1 0.5
vt 0.75 0.5
vt 0.75 0
vt 1 0
vn 0.8660254037844388 -5.4514770895734845e-17 0.5
usemtl m_2bc79ad4-2ad5-8946-4dff-8714bc79b0d7
f 25/25/7 26/26/7 28/27/7 27/28/7
o plane
v 0.71875 1.125 0.8788861141556921
v 0.96875 1.125 1.3118988160479113
v 0.71875 0.12499999999999989 0.8788861141556918
v 0.96875 0.12499999999999989 1.3118988160479113
vt 1 0.5
vt 0.75 0.5
vt 0.75 0
vt 1 0
vn 0.8660254037844388 -5.4514770895734845e-17 -0.5
usemtl m_2bc79ad4-2ad5-8946-4dff-8714bc79b0d7
f 29/29/8 30/30/8 32/31/8 31/32/8
o plane
v 0.06250000000000011 1.125 0.4999999999999999
v -0.4374999999999999 1.1250000000000002 0.4999999999999999
v 0.06249999999999989 0.1250000000000001 0.5000000000000001
v -0.4375000000000001 0.12500000000000022 0.5000000000000001
vt 1 0.5
vt 0.75 0.5
vt 0.75 0
vt 1 0
vn 4.930380657631324e-32 2.220446049250313e-16 1
usemtl m_2bc79ad4-2ad5-8946-4dff-8714bc79b0d7
f 33/33/9 34/34/9 36/35/9 35/36/9
o plane
v 0.28125 1.125 0.12111388584430804
v 0.03125 1.125 -0.31189881604791125
v 0.28125 0.125 0.12111388584430816
v 0.03125 0.125 -0.31189881604791103
vt 1 0.5
vt 0.75 0.5
vt 0.75 0
vt 1 0
vn -0.8660254037844388 5.551115123125784e-17 0.5000000000000001
usemtl m_2bc79ad4-2ad5-8946-4dff-8714bc79b0d7
f 37/37/10 38/38/10 40/39/10 39/40/10
o plane
v 0.71875 1.125 0.12111388584430816
v 0.96875 1.125 -0.31189881604791103
v 0.71875 0.125 0.12111388584430804
v 0.96875 0.125 -0.31189881604791125
vt 1 0.5
vt 0.75 0.5
vt 0.75 0
vt 1 0
vn -0.8660254037844388 5.551115123125784e-17 -0.5000000000000001
usemtl m_2bc79ad4-2ad5-8946-4dff-8714bc79b0d7
f 41/41/11 42/42/11 44/43/11 43/44/11
o plane
v 0.9375000000000001 1.125 0.5000000000000001
v 1.4375 1.1249999999999998 0.5000000000000001
v 0.9374999999999999 0.12499999999999989 0.4999999999999999
v 1.4375 0.12499999999999978 0.4999999999999999
vt 1 0.5
vt 0.75 0.5
vt 0.75 0
vt 1 0
vn 4.930380657631324e-32 2.220446049250313e-16 -1
usemtl m_2bc79ad4-2ad5-8946-4dff-8714bc79b0d7
f 45/45/12 46/46/12 48/47/12 47/48/12
o plane
v 0.5000000000000001 0.125 0.5000000000000001
v 1 0.12499999999999989 0.5000000000000001
v 0.5000000000000001 0 0.5000000000000001
v 1 -1.1102230246251565e-16 0.5000000000000001
vt 0.75 0.5625
vt 0.53125 0.5625
vt 0.53125 0.5
vt 0.75 0.5
vn 4.930380657631324e-32 2.220446049250313e-16 -1
usemtl m_2bc79ad4-2ad5-8946-4dff-8714bc79b0d7
f 49/49/13 50/50/13 52/51/13 51/52/13
o plane
v 0.5 0.125 0.5
v 0.75 0.125 0.06698729810778076
v 0.5 0 0.5
v 0.75 0 0.06698729810778076
vt 0.75 0.5625
vt 0.53125 0.5625
vt 0.53125 0.5
vt 0.75 0.5
vn -0.8660254037844388 5.551115123125784e-17 -0.5000000000000001
usemtl m_2bc79ad4-2ad5-8946-4dff-8714bc79b0d7
f 53/53/14 54/54/14 56/55/14 55/56/14
o plane
v 0.5 0.125 0.49999999999999994
v 0.25 0.125 0.06698729810778065
v 0.5 0 0.49999999999999994
v 0.25 0 0.06698729810778065
vt 0.75 0.5625
vt 0.53125 0.5625
vt 0.53125 0.5
vt 0.75 0.5
vn -0.8660254037844388 5.551115123125784e-17 0.5000000000000001
usemtl m_2bc79ad4-2ad5-8946-4dff-8714bc79b0d7
f 57/57/15 58/58/15 60/59/15 59/60/15
o plane
v 0.5000000000000001 0.125 0.4999999999999999
v 1.1102230246251565e-16 0.1250000000000001 0.4999999999999999
v 0.5000000000000001 0 0.4999999999999999
v 1.1102230246251565e-16 1.1102230246251565e-16 0.4999999999999999
vt 0.75 0.5625
vt 0.53125 0.5625
vt 0.53125 0.5
vt 0.75 0.5
vn 4.930380657631324e-32 2.220446049250313e-16 1
usemtl m_2bc79ad4-2ad5-8946-4dff-8714bc79b0d7
f 61/61/16 62/62/16 64/63/16 63/64/16
o plane
v 0.5 0.125 0.5
v 0.75 0.12499999999999994 0.9330127018922194
v 0.5 0 0.5
v 0.75 -5.551115123125783e-17 0.9330127018922194
vt 0.75 0.5625
vt 0.53125 0.5625
vt 0.53125 0.5
vt 0.75 0.5
vn 0.8660254037844388 -5.4514770895734845e-17 -0.5
usemtl m_2bc79ad4-2ad5-8946-4dff-8714bc79b0d7
f 65/65/17 66/66/17 68/67/17 67/68/17
o plane
v 0.5 0.125 0.49999999999999994
v 0.25000000000000006 0.1250000000000001 0.9330127018922194
v 0.5 0 0.49999999999999994
v 0.25000000000000006 5.551115123125783e-17 0.9330127018922194
vt 0.75 0.5625
vt 0.53125 0.5625
vt 0.53125 0.5
vt 0.75 0.5
vn 0.8660254037844388 -5.4514770895734845e-17 0.5
usemtl m_2bc79ad4-2ad5-8946-4dff-8714bc79b0d7
f 69/69/18 70/70/18 72/71/18 71/72/18
o cylinder
v 0.5 0.125 0.5
v 0.5 1.125 0.5
v 0.73454875 0.125 0.90625
v 0.73454875 1.125 0.90625
v 0.969096875 0.125 0.5
v 0.969096875 1.125 0.5
v 0.73454875 0.125 0.09375
v 0.73454875 1.125 0.09375
v 0.26545125 0.125 0.09375
v 0.26545125 1.125 0.09375
v 0.030903124999999976 0.125 0.5
v 0.030903124999999976 1.125 0.5
v 0.26545125 0.125 0.90625
v 0.26545125 1.125 0.90625
vt 0.492275 0.7890625
vt 0.3711375 1
vt 0.25 0.7890625
vt 0.3711375 0.578125
vt 0.492275 0.7890625
vt 0.25 0.7890625
vt 0.3711375 0.578125
vt 0.492275 0.7890625
vt 0.25 0.7890625
vt 0.492275 0.7890625
vt 0.3711375 1
vt 0.25 0.7890625
vt 0.1288625 0.578125
vt 0.3711375 0.578125
vt 0.25 0.7890625
vt 0.3711375 1
vt 0.1288625 1
vt 0.25 0.7890625
vt 0.007725 0.7890625
vt 0.1288625 0.578125
vt 0.25 0.7890625
vt 0.1288625 1
vt 0.007725 0.7890625
vt 0.25 0.7890625
vt 0.1288625 1
vt 0.007725 0.7890625
vt 0.25 0.7890625
vt 0.007725 0.7890625
vt 0.1288625 0.578125
vt 0.25 0.7890625
vt 0.3711375 1
vt 0.1288625 1
vt 0.25 0.7890625
vt 0.1288625 0.578125
vt 0.3711375 0.578125
vt 0.25 0.7890625
vt 0 0.0625
vt 0.25 0.0625
vt 0.25 0.5625
vt 0 0.5625
vt 0 0.0625
vt 0.25 0.0625
vt 0.25 0.5625
vt 0 0.5625
vt 0 0.0625
vt 0.25 0.0625
vt 0.25 0.5625
vt 0 0.5625
vt 0 0.0625
vt 0.25 0.0625
vt 0.25 0.5625
vt 0 0.5625
vt 0 0.0625
vt 0.25 0.0625
vt 0.25 0.5625
vt 0 0.5625
vt 0 0.0625
vt 0.25 0.0625
vt 0.25 0.5625
vt 0 0.5625
vn 0 -1 0
vn 0 1 0
vn 0 -1 0
vn 0 1 0
vn 0 -1 0
vn 0 1 0
vn 0 -1 0
vn 0 1 0
vn 0 -1 0
vn 0 1 0
vn 0 -1 0
vn 0 1 0
vn -0.8660257931919993 0 -0.4999993255257138
vn 0.8660257931919993 0 -0.4999993255257138
vn 0 0 -1
vn -0.8660257931919993 0 0.4999993255257138
vn 0.8660257931919993 0 0.4999993255257138
vn 0 0 1
usemtl m_2bc79ad4-2ad5-8946-4dff-8714bc79b0d7
f 77/73/19 75/74/19 73/75/19
f 76/76/20 78/77/20 74/78/20
f 79/79/21 77/80/21 73/81/21
f 78/82/22 80/83/22 74/84/22
f 81/85/23 79/86/23 73/87/23
f 80/88/24 82/89/24 74/90/24
f 83/91/25 81/92/25 73/93/25
f 82/94/26 84/95/26 74/96/26
f 85/97/27 83/98/27 73/99/27
f 84/100/28 86/101/28 74/102/28
f 75/103/29 85/104/29 73/105/29
f 86/106/30 76/107/30 74/108/30
f 81/109/31 83/110/31 84/111/31 82/112/31
f 77/113/32 79/114/32 80/115/32 78/116/32
f 79/117/33 81/118/33 82/119/33 80/120/33
f 83/121/34 85/122/34 86/123/34 84/124/34
f 75/125/35 77/126/35 78/127/35 76/128/35
f 85/129/36 75/130/36 76/131/36 86/132/36
o cone
v 0.5 2.0625 0.5
v 0.73454875 1.125 0.90625
v 0.969096875 1.125 0.5
v 0.73454875 1.125 0.09375
v 0.26545125 1.125 0.09375
v 0.030903124999999976 1.125 0.5
v 0.26545125 1.125 0.90625
vt 0.53515625 0.5641046875
vt 0.77743125 0.5641046875
vt 0.65629375 0.99609375
vt 0.53515625 0.5641046875
vt 0.77743125 0.5641046875
vt 0.65629375 0.99609375
vt 0.53515625 0.5641046875
vt 0.77743125 0.5641046875
vt 0.65629375 0.99609375
vt 0.53515625 0.5641046875
vt 0.77743125 0.5641046875
vt 0.65629375 0.99609375
vt 0.53515625 0.5641046875
vt 0.77743125 0.5641046875
vt 0.65629375 0.99609375
vt 0.53515625 0.5641046875
vt 0.77743125 0.5641046875
vt 0.65629375 0.99609375
vn 0.7946268402923149 0.39760743207706567 0.4587771949913525
vn 0.7946268402923149 0.39760743207706567 -0.4587771949913525
vn 0 0.3976074376343005 -0.9175556253099242
vn -0.7946268402923149 0.39760743207706567 -0.4587771949913525
vn -0.7946268402923149 0.39760743207706567 0.4587771949913525
vn 0 0.3976074376343005 0.9175556253099242
usemtl m_2bc79ad4-2ad5-8946-4dff-8714bc79b0d7
f 88/133/37 89/134/37 87/135/37
f 89/136/38 90/137/38 87/138/38
f 90/139/39 91/140/39 87/141/39
f 91/142/40 92/143/40 87/144/40
f 92/145/41 93/146/41 87/147/41
f 93/148/42 88/149/42 87/150/42
o cylinder
v 0.5 0.125 0.5
v 0.5 1.125 0.5
v 0.73454875 0.125 0.90625
v 0.73454875 1.125 0.90625
v 0.969096875 0.125 0.5
v 0.969096875 1.125 0.5
v 0.73454875 0.125 0.09375
v 0.73454875 1.125 0.09375
v 0.26545125 0.125 0.09375
v 0.26545125 1.125 0.09375
v 0.030903124999999976 0.125 0.5
v 0.030903124999999976 1.125 0.5
v 0.26545125 0.125 0.90625
v 0.26545125 1.125 0.90625
vt 0.3711375 1
vt 0.492275 0.7890625
vt 0.25 0.7890625
vt 0.492275 0.7890625
vt 0.3711375 0.578125
vt 0.25 0.7890625
vt 0.492275 0.7890625
vt 0.3711375 0.578125
vt 0.25 0.7890625
vt 0.3711375 1
vt 0.492275 0.7890625
vt 0.25 0.7890625
vt 0.3711375 0.578125
vt 0.1288625 0.578125
vt 0.25 0.7890625
vt 0.1288625 1
vt 0.3711375 1
vt 0.25 0.7890625
vt 0.1288625 0.578125
vt 0.007725 0.7890625
vt 0.25 0.7890625
vt 0.007725 0.7890625
vt 0.1288625 1
vt 0.25 0.7890625
vt 0.007725 0.7890625
vt 0.1288625 1
vt 0.25 0.7890625
vt 0.1288625 0.578125
vt 0.007725 0.7890625
vt 0.25 0.7890625
vt 0.1288625 1
vt 0.3711375 1
vt 0.25 0.7890625
vt 0.3711375 0.578125
vt 0.1288625 0.578125
vt 0.25 0.7890625
vt 0.25 0.5625
vt 0.25 0.0625
vt 0 0.0625
vt 0 0.5625
vt 0.25 0.5625
vt 0.25 0.0625
vt 0 0.0625
vt 0 0.5625
vt 0.25 0.5625
vt 0.25 0.0625
vt 0 0.0625
vt 0 0.5625
vt 0.25 0.5625
vt 0.25 0.0625
vt 0 0.0625
vt 0 0.5625
vt 0.25 0.5625
vt 0.25 0.0625
vt 0 0.0625
vt 0 0.5625
vt 0.25 0.5625
vt 0.25 0.0625
vt 0 0.0625
vt 0 0.5625
vn 0 1 0
vn 0 -1 0
vn 0 1 0
vn 0 -1 0
vn 0 1 0
vn 0 -1 0
vn 0 1 0
vn 0 -1 0
vn 0 1 0
vn 0 -1 0
vn 0 1 0
vn 0 -1 0
vn 0.8660257931919993 0 0.4999993255257138
vn -0.8660257931919993 0 0.4999993255257138
vn 0 0 1
vn 0.8660257931919993 0 -0.4999993255257138
vn -0.8660257931919993 0 -0.4999993255257138
vn 0 0 -1
usemtl m_2bc79ad4-2ad5-8946-4dff-8714bc79b0d7
f 96/151/43 98/152/43 94/153/43
f 99/154/44 97/155/44 95/156/44
f 98/157/45 100/158/45 94/159/45
f 101/160/46 99/161/46 95/162/46
f 100/163/47 102/164/47 94/165/47
f 103/166/48 101/167/48 95/168/48
f 102/169/49 104/170/49 94/171/49
f 105/172/50 103/173/50 95/174/50
f 104/175/51 106/176/51 94/177/51
f 107/178/52 105/179/52 95/180/52
f 106/181/53 96/182/53 94/183/53
f 97/184/54 107/185/54 95/186/54
f 105/187/55 104/188/55 102/189/55 103/190/55
f 101/191/56 100/192/56 98/193/56 99/194/56
f 103/195/57 102/196/57 100/197/57 101/198/57
f 107/199/58 106/200/58 104/201/58 105/202/58
f 99/203/59 98/204/59 96/205/59 97/206/59
f 97/207/60 96/208/60 106/209/60 107/210/60
o plane
v 0.5 2.125 0.5
v 0.75 2.125 0.06698729810778076
v 0.5 1.125 0.49999999999999994
v 0.75 1.125 0.06698729810778065
vt 0.25 0.0625
vt 0.25 0.5625
vt 0.5 0.5625
vt 0.5 0.0625
vn 0.8660254037844388 -5.551115123125784e-17 0.5000000000000001
usemtl m_2bc79ad4-2ad5-8946-4dff-8714bc79b0d7
f 111/211/61 109/212/61 108/213/61 110/214/61
o plane
v 0.5000000000000001 2.125 0.5000000000000001
v 1 2.125 0.5000000000000001
v 0.4999999999999999 1.125 0.4999999999999999
v 0.9999999999999999 1.125 0.4999999999999999
vt 0.25 0.0625
vt 0.25 0.5625
vt 0.5 0.5625
vt 0.5 0.0625
vn -4.930380657631324e-32 -2.220446049250313e-16 1
usemtl m_2bc79ad4-2ad5-8946-4dff-8714bc79b0d7
f 115/215/62 113/216/62 112/217/62 114/218/62
o plane
v 0.5 2.125 0.5
v 0.75 2.125 0.9330127018922194
v 0.49999999999999994 1.125 0.49999999999999994
v 0.75 1.125 0.9330127018922194
vt 0.25 0.0625
vt 0.25 0.5625
vt 0.5 0.5625
vt 0.5 0.0625
vn -0.8660254037844388 5.4514770895734845e-17 0.5
usemtl m_2bc79ad4-2ad5-8946-4dff-8714bc79b0d7
f 119/219/63 117/220/63 116/221/63 118/222/63
o plane
v 0.5 2.125 0.49999999999999994
v 0.25000000000000006 2.125 0.9330127018922194
v 0.49999999999999994 1.125 0.5
v 0.24999999999999994 1.125 0.9330127018922194
vt 0.25 0.0625
vt 0.25 0.5625
vt 0.5 0.5625
vt 0.5 0.0625
vn -0.8660254037844388 5.4514770895734845e-17 -0.5
usemtl m_2bc79ad4-2ad5-8946-4dff-8714bc79b0d7
f 123/223/64 121/224/64 120/225/64 122/226/64
o plane
v 0.5000000000000001 2.125 0.4999999999999999
v 1.1102230246251565e-16 2.125 0.4999999999999999
v 0.4999999999999999 1.125 0.5000000000000001
v -1.1102230246251565e-16 1.125 0.5000000000000001
vt 0.25 0.0625
vt 0.25 0.5625
vt 0.5 0.5625
vt 0.5 0.0625
vn -4.930380657631324e-32 -2.220446049250313e-16 -1
usemtl m_2bc79ad4-2ad5-8946-4dff-8714bc79b0d7
f 127/227/65 125/228/65 124/229/65 126/230/65
o plane
v 0.5 2.125 0.49999999999999994
v 0.25 2.125 0.06698729810778065
v 0.5 1.125 0.5
v 0.25 1.125 0.06698729810778076
vt 0.25 0.0625
vt 0.25 0.5625
vt 0.5 0.5625
vt 0.5 0.0625
vn 0.8660254037844388 -5.551115123125784e-17 -0.5000000000000001
usemtl m_2bc79ad4-2ad5-8946-4dff-8714bc79b0d7
f 131/231/66 129/232/66 128/233/66 130/234/66
o plane
v 0.9375000000000001 1.125 0.5000000000000001
v 1.4375 1.1249999999999998 0.5000000000000001
v 0.9374999999999999 0.12499999999999989 0.4999999999999999
v 1.4375 0.12499999999999978 0.4999999999999999
vt 0.75 0
vt 0.75 0.5
vt 1 0.5
vt 1 0
vn -4.930380657631324e-32 -2.220446049250313e-16 1
usemtl m_2bc79ad4-2ad5-8946-4dff-8714bc79b0d7
f 135/235/67 133/236/67 132/237/67 134/238/67
o plane
v 0.71875 1.125 0.12111388584430816
v 0.96875 1.125 -0.31189881604791103
v 0.71875 0.125 0.12111388584430804
v 0.96875 0.125 -0.31189881604791125
vt 0.75 0
vt 0.75 0.5
vt 1 0.5
vt 1 0
vn 0.8660254037844388 -5.551115123125784e-17 0.5000000000000001
usemtl m_2bc79ad4-2ad5-8946-4dff-8714bc79b0d7
f 139/239/68 137/240/68 136/241/68 138/242/68
o plane
v 0.28125 1.125 0.12111388584430804
v 0.03125 1.125 -0.31189881604791125
v 0.28125 0.125 0.12111388584430816
v 0.03125 0.125 -0.31189881604791103
vt 0.75 0
vt 0.75 0.5
vt 1 0.5
vt 1 0
vn 0.8660254037844388 -5.551115123125784e-17 -0.5000000000000001
usemtl m_2bc79ad4-2ad5-8946-4dff-8714bc79b0d7
f 143/243/69 141/244/69 140/245/69 142/246/69
o plane
v 0.06250000000000011 1.125 0.4999999999999999
v -0.4374999999999999 1.1250000000000002 0.4999999999999999
v 0.06249999999999989 0.1250000000000001 0.5000000000000001
v -0.4375000000000001 0.12500000000000022 0.5000000000000001
vt 0.75 0
vt 0.75 0.5
vt 1 0.5
vt 1 0
vn -4.930380657631324e-32 -2.220446049250313e-16 -1
usemtl m_2bc79ad4-2ad5-8946-4dff-8714bc79b0d7
f 147/247/70 145/248/70 144/249/70 146/250/70
o plane
v 0.71875 1.125 0.8788861141556921
v 0.96875 1.125 1.3118988160479113
v 0.71875 0.12499999999999989 0.8788861141556918
v 0.96875 0.12499999999999989 1.3118988160479113
vt 0.75 0
vt 0.75 0.5
vt 1 0.5
vt 1 0
vn -0.8660254037844388 5.4514770895734845e-17 0.5
usemtl m_2bc79ad4-2ad5-8946-4dff-8714bc79b0d7
f 151/251/71 149/252/71 148/253/71 150/254/71
o plane
v 0.28125000000000006 1.125 0.8788861141556918
v 0.031250000000000056 1.125 1.3118988160479113
v 0.28124999999999994 0.12500000000000006 0.8788861141556921
v 0.031249999999999944 0.1250000000000001 1.3118988160479113
vt 0.75 0
vt 0.75 0.5
vt 1 0.5
vt 1 0
vn -0.8660254037844388 5.4514770895734845e-17 -0.5
usemtl m_2bc79ad4-2ad5-8946-4dff-8714bc79b0d7
f 155/255/72 153/256/72 152/257/72 154/258/72
o plane
v 0.5000000000000001 0.125 0.5000000000000001
v 1 0.12499999999999989 0.5000000000000001
v 0.5000000000000001 0 0.5000000000000001
v 1 -1.1102230246251565e-16 0.5000000000000001
vt 0.53125 0.5
vt 0.53125 0.5625
vt 0.75 0.5625
vt 0.75 0.5
vn -4.930380657631324e-32 -2.220446049250313e-16 1
usemtl m_2bc79ad4-2ad5-8946-4dff-8714bc79b0d7
f 159/259/73 157/260/73 156/261/73 158/262/73
o plane
v 0.5 0.125 0.5
v 0.75 0.125 0.06698729810778076
v 0.5 0 0.5
v 0.75 0 0.06698729810778076
vt 0.53125 0.5
vt 0.53125 0.5625
vt 0.75 0.5625
vt 0.75 0.5
vn 0.8660254037844388 -5.551115123125784e-17 0.5000000000000001
usemtl m_2bc79ad4-2ad5-8946-4dff-8714bc79b0d7
f 163/263/74 161/264/74 160/265/74 162/266/74
o plane
v 0.5 0.125 0.49999999999999994
v 0.25 0.125 0.06698729810778065
v 0.5 0 0.49999999999999994
v 0.25 0 0.06698729810778065
vt 0.53125 0.5
vt 0.53125 0.5625
vt 0.75 0.5625
vt 0.75 0.5
vn 0.8660254037844388 -5.551115123125784e-17 -0.5000000000000001
usemtl m_2bc79ad4-2ad5-8946-4dff-8714bc79b0d7
f 167/267/75 165/268/75 164/269/75 166/270/75
o plane
v 0.5000000000000001 0.125 0.4999999999999999
v 1.1102230246251565e-16 0.1250000000000001 0.4999999999999999
v 0.5000000000000001 0 0.4999999999999999
v 1.1102230246251565e-16 1.1102230246251565e-16 0.4999999999999999
vt 0.53125 0.5
vt 0.53125 0.5625
vt 0.75 0.5625
vt 0.75 0.5
vn -4.930380657631324e-32 -2.220446049250313e-16 -1
usemtl m_2bc79ad4-2ad5-8946-4dff-8714bc79b0d7
f 171/271/76 169/272/76 168/273/76 170/274/76
o plane
v 0.5 0.125 0.5
v 0.75 0.12499999999999994 0.9330127018922194
v 0.5 0 0.5
v 0.75 -5.551115123125783e-17 0.9330127018922194
vt 0.53125 0.5
vt 0.53125 0.5625
vt 0.75 0.5625
vt 0.75 0.5
vn -0.8660254037844388 5.4514770895734845e-17 0.5
usemtl m_2bc79ad4-2ad5-8946-4dff-8714bc79b0d7
f 175/275/77 173/276/77 172/277/77 174/278/77
o plane
v 0.5 0.125 0.49999999999999994
v 0.25000000000000006 0.1250000000000001 0.9330127018922194
v 0.5 0 0.49999999999999994
v 0.25000000000000006 5.551115123125783e-17 0.9330127018922194
vt 0.53125 0.5
vt 0.53125 0.5625
vt 0.75 0.5625
vt 0.75 0.5
vn -0.8660254037844388 5.4514770895734845e-17 -0.5
usemtl m_2bc79ad4-2ad5-8946-4dff-8714bc79b0d7
f 179/279/78 177/280/78 176/281/78 178/282/78