# Made in Blockbench 5.0.7
mtllib plushie_cosmo.mtl

o mesh
v -0.18750000000000006 0.6875 0.22018000000000004
v 0.18749999999999994 0.6875 0.22018000000000004
v -0.1875 0.3125 0.2201800000000001
v 0.1875 0.31250000000000006 0.2201800000000001
v -0.18750000000000006 0.6875 -0.15482
v 0.18749999999999994 0.6875 -0.15482
v -0.1875 0.31249999999999994 -0.15481999999999996
v 0.1875 0.3125 -0.15481999999999996
vt 0.375 0.8125
vt 0.1875 0.8125
vt 0.1875 0.625
vt 0.375 0.625
vt 0.75 0.625
vt 0.75 0.8125
vt 0.5625 0.8125
vt 0.5625 0.625
vt 0.1875 0.8125
vt 0.375 0.8125
vt 0.375 1
vt 0.1875 1
vt 0.375 0.625
vt 0.1875 0.625
vt 0.1875 0.4375
vt 0.375 0.4375
vt 0.1875 0.625
vt 0.1875 0.8125
vt 0 0.8125
vt 0 0.625
vt 0.5625 0.8125
vt 0.375 0.8125
vt 0.375 0.625
vt 0.5625 0.625
vn 0 1.2246467991473532e-16 1
vn 0 -1.2246467991473532e-16 -1
vn -1.2246467991473532e-16 1 -1.2246467991473532e-16
vn 1.2246467991473532e-16 -1 1.2246467991473532e-16
vn -1 -1.2246467991473532e-16 1.4997597826618576e-32
vn 1 1.2246467991473532e-16 -1.4997597826618576e-32
usemtl m_5696b5e2-53a1-fe64-6f3a-8aadcb512ece
f 2/1/1 1/2/1 3/3/1 4/4/1
f 7/5/2 5/6/2 6/7/2 8/8/2
f 5/9/3 1/10/3 2/11/3 6/12/3
f 4/13/4 3/14/4 7/15/4 8/16/4
f 3/17/5 1/18/5 5/19/5 7/20/5
f 6/21/6 2/22/6 4/23/6 8/24/6
o mesh
v -0.125 0.3125 0.12643000000000007
v 0.125 0.3125 0.12643000000000007
v -0.12499999999999997 0 0.12643000000000013
v 0.12500000000000003 0 0.12643000000000013
v -0.125 0.3125 -0.061069999999999916
v 0.125 0.3125 -0.061069999999999916
v -0.12499999999999997 0 -0.06106999999999989
v 0.12500000000000003 0 -0.06106999999999989
vt 0.625 1
vt 0.5 1
vt 0.5 0.84375
vt 0.625 0.84375
vt 0.84375 0.84375
vt 0.84375 1
vt 0.71875 1
vt 0.71875 0.84375
vt 0.84375 0.875
vt 0.9375 0.875
vt 0.9375 1
vt 0.84375 1
vt 0.9375 0.75
vt 0.9375 0.875
vt 0.84375 0.875
vt 0.84375 0.75
vt 0.5 0.84375
vt 0.5 1
vt 0.40625 1
vt 0.40625 0.84375
vt 0.71875 1
vt 0.625 1
vt 0.625 0.84375
vt 0.71875 0.84375
vn 0 1.2246467991473532e-16 1
vn 0 -1.2246467991473532e-16 -1
vn -1.2246467991473532e-16 1 -1.2246467991473532e-16
vn 1.2246467991473532e-16 -1 1.2246467991473532e-16
vn -1 -1.2246467991473532e-16 1.4997597826618576e-32
vn 1 1.2246467991473532e-16 -1.4997597826618576e-32
usemtl m_5696b5e2-53a1-fe64-6f3a-8aadcb512ece
f 10/25/7 9/26/7 11/27/7 12/28/7
f 15/29/8 13/30/8 14/31/8 16/32/8
f 13/33/9 9/34/9 10/35/9 14/36/9
f 12/37/10 11/38/10 15/39/10 16/40/10
f 11/41/11 9/42/11 13/43/11 15/44/11
f 14/45/12 10/46/12 12/47/12 16/48/12
o mesh
v -0.18662260888411636 0.12812500000000002 0.25108484373772105
v -0.07113766732020552 0.12812500000000004 0.29892027278335725
v -0.18662260888411636 0.003124999999999989 0.2510848437377211
v -0.0711376673202055 0.003124999999999989 0.2989202727833573
v -0.11486946531566203 0.12499999999999997 0.0778574313918548
v 0.0006154762482488071 0.125 0.125692860437491
v -0.11486946531566203 0 0.07785743139185482
v 0.000615476248248821 0 0.12569286043749103
vt 0.46875 0.5
vt 0.40625 0.5
vt 0.40625 0.4375
vt 0.46875 0.4375
vt 0.46875 0.375
vt 0.46875 0.4375
vt 0.40625 0.4375
vt 0.40625 0.375
vt 0.46875 0.5
vt 0.46875 0.59375
vt 0.40625 0.59375
vt 0.40625 0.5
vt 0.53125 0.59375
vt 0.46875 0.59375
vt 0.46875 0.5
vt 0.53125 0.5
vt 0.46875 0.59375
vt 0.53125 0.59375
vt 0.53125 0.5
vt 0.46875 0.5
vt 0.53125 0.5
vt 0.53125 0.59375
vt 0.46875 0.59375
vt 0.46875 0.5
vn -0.3826834323650897 1.1314261122877003e-16 0.9238795325112867
vn 0.3826834323650897 -1.1314261122877003e-16 -0.9238795325112867
vn 0.006377171549313685 0.9998611400396 -0.015395854043933383
vn -0.006377171549313628 -0.9998611400396 0.015395854043933246
vn -0.9238795325112867 -1.6932988396799826e-16 -0.3826834323650897
vn 0.9238795325112867 1.6932988396799826e-16 0.3826834323650897
usemtl m_5696b5e2-53a1-fe64-6f3a-8aadcb512ece
f 18/49/13 17/50/13 19/51/13 20/52/13
f 23/53/14 21/54/14 22/55/14 24/56/14
f 21/57/15 17/58/15 18/59/15 22/60/15
f 20/61/16 19/62/16 23/63/16 24/64/16
f 19/65/17 17/66/17 21/67/17 23/68/17
f 22/69/18 18/70/18 20/71/18 24/72/18
o mesh
v -0.21875 0.3125 0.09518000000000007
v -0.09375 0.3125 0.09518000000000007
v -0.21874999999999997 0.12499999999999997 0.0951800000000001
v -0.09374999999999999 0.125 0.0951800000000001
v -0.21875 0.31249999999999994 -0.029819999999999916
v -0.09375 0.3125 -0.029819999999999916
v -0.21874999999999997 0.12499999999999994 -0.029819999999999888
v -0.09374999999999999 0.12499999999999997 -0.029819999999999888
vt 0.59375 0.59375
vt 0.53125 0.59375
vt 0.53125 0.5
vt 0.59375 0.5
vt 0.65625 0.5
vt 0.65625 0.59375
vt 0.59375 0.59375
vt 0.59375 0.5
vt 0.53125 0.4375
vt 0.59375 0.4375
vt 0.59375 0.5
vt 0.53125 0.5
vt 0.59375 0.375
vt 0.59375 0.4375
vt 0.53125 0.4375
vt 0.53125 0.375
vt 0.65625 0.5
vt 0.65625 0.59375
vt 0.59375 0.59375
vt 0.59375 0.5
vt 0.65625 0.59375
vt 0.59375 0.59375
vt 0.59375 0.5
vt 0.65625 0.5
vn 0 1.2246467991473532e-16 1
vn 0 -1.2246467991473532e-16 -1
vn -1.2246467991473532e-16 1 -1.2246467991473532e-16
vn 1.2246467991473532e-16 -1 1.2246467991473532e-16
vn -1 -1.2246467991473532e-16 1.4997597826618576e-32
vn 1 1.2246467991473532e-16 -1.4997597826618576e-32
usemtl m_5696b5e2-53a1-fe64-6f3a-8aadcb512ece
f 26/73/19 25/74/19 27/75/19 28/76/19
f 31/77/20 29/78/20 30/79/20 32/80/20
f 29/81/21 25/82/21 26/83/21 30/84/21
f 28/85/22 27/86/22 31/87/22 32/88/22
f 27/89/23 25/90/23 29/91/23 31/92/23
f 30/93/24 26/94/24 28/95/24 32/96/24
o mesh
v 0.09375 0.3125 0.09518000000000007
v 0.21875 0.31250000000000006 0.09518000000000007
v 0.09375000000000001 0.125 0.0951800000000001
v 0.21875000000000003 0.12500000000000003 0.0951800000000001
v 0.09375 0.3125 -0.029819999999999916
v 0.21875 0.3125 -0.029819999999999916
v 0.09375000000000001 0.12499999999999997 -0.029819999999999888
v 0.21875000000000003 0.125 -0.029819999999999888
vt 0.59375 0.59375
vt 0.53125 0.59375
vt 0.53125 0.5
vt 0.59375 0.5
vt 0.65625 0.5
vt 0.65625 0.59375
vt 0.59375 0.59375
vt 0.59375 0.5
vt 0.53125 0.5
vt 0.59375 0.5
vt 0.59375 0.4375
vt 0.53125 0.4375
vt 0.59375 0.4375
vt 0.59375 0.375
vt 0.53125 0.375
vt 0.53125 0.4375
vt 0.65625 0.5
vt 0.65625 0.59375
vt 0.59375 0.59375
vt 0.59375 0.5
vt 0.65625 0.59375
vt 0.59375 0.59375
vt 0.59375 0.5
vt 0.65625 0.5
vn 0 1.2246467991473532e-16 1
vn 0 -1.2246467991473532e-16 -1
vn -1.2246467991473532e-16 1 -1.2246467991473532e-16
vn 1.2246467991473532e-16 -1 1.2246467991473532e-16
vn -1 -1.2246467991473532e-16 1.4997597826618576e-32
vn 1 1.2246467991473532e-16 -1.4997597826618576e-32
usemtl m_5696b5e2-53a1-fe64-6f3a-8aadcb512ece
f 34/97/25 33/98/25 35/99/25 36/100/25
f 39/101/26 37/102/26 38/103/26 40/104/26
f 37/105/27 33/106/27 34/107/27 38/108/27
f 36/109/28 35/110/28 39/111/28 40/112/28
f 35/113/29 33/114/29 37/115/29 39/116/29
f 38/117/30 34/118/30 36/119/30 40/120/30
o mesh
v 0.07113766732020554 0.12812500000000004 0.29892027278335725
v 0.1866226088841164 0.12812500000000004 0.25108484373772105
v 0.07113766732020557 0.003124999999999989 0.29892027278335725
v 0.18662260888411641 0.003124999999999989 0.25108484373772105
v -0.0006154762482487725 0.125 0.125692860437491
v 0.11486946531566206 0.125 0.07785743139185479
v -0.0006154762482487586 0 0.125692860437491
v 0.11486946531566208 0 0.07785743139185479
vt 0.46875 0.5
vt 0.40625 0.5
vt 0.40625 0.4375
vt 0.46875 0.4375
vt 0.46875 0.375
vt 0.46875 0.4375
vt 0.40625 0.4375
vt 0.40625 0.375
vt 0.46875 0.5
vt 0.46875 0.59375
vt 0.40625 0.59375
vt 0.40625 0.5
vt 0.46875 0.59375
vt 0.53125 0.59375
vt 0.53125 0.5
vt 0.46875 0.5
vt 0.46875 0.59375
vt 0.53125 0.59375
vt 0.53125 0.5
vt 0.46875 0.5
vt 0.53125 0.5
vt 0.53125 0.59375
vt 0.46875 0.59375
vt 0.46875 0.5
vn 0.3826834323650897 1.1314261122877005e-16 0.9238795325112867
vn -0.3826834323650897 -1.1314261122877005e-16 -0.9238795325112867
vn -0.00637717154931391 0.9998611400396 -0.01539585404393329
vn 0.006377171549313853 -0.9998611400396 0.015395854043933153
vn -0.9238795325112867 -7.559947586147235e-17 0.3826834323650897
vn 0.9238795325112867 7.559947586147235e-17 -0.3826834323650897
usemtl m_5696b5e2-53a1-fe64-6f3a-8aadcb512ece
f 42/121/31 41/122/31 43/123/31 44/124/31
f 47/125/32 45/126/32 46/127/32 48/128/32
f 45/129/33 41/130/33 42/131/33 46/132/33
f 44/133/34 43/134/34 47/135/34 48/136/34
f 43/137/35 41/138/35 45/139/35 47/140/35
f 46/141/36 42/142/36 44/143/36 48/144/36
o plane
v -0.18749996963333088 0.6875 0.09517964975963031
v -0.3642766649299678 0.6875 -0.0815970455370066
v -0.18749996963333088 0.3125 0.09517964975963043
v -0.3642766649299678 0.3125 -0.08159704553700646
vt 0.1875 1
vt 0.0625 1
vt 0.0625 0.8125
vt 0.1875 0.8125
vn -0.7071067811865475 2.355138688025663e-16 0.7071067811865476
usemtl m_5696b5e2-53a1-fe64-6f3a-8aadcb512ece
f 49/145/37 50/146/37 52/147/37 51/148/37
o plane
v 0.18749996963333088 0.6875 0.09517964975963031
v 0.3642766649299678 0.6875 -0.0815970455370066
v 0.18749996963333088 0.3125 0.09517964975963043
v 0.3642766649299678 0.3125 -0.08159704553700646
vt 0.0625 0.8125
vt 0.0625 1
vt 0.1875 1
vt 0.1875 0.8125
vn 0.7071067811865475 2.355138688025663e-16 0.7071067811865476
usemtl m_5696b5e2-53a1-fe64-6f3a-8aadcb512ece
f 56/149/38 54/150/38 53/151/38 55/152/38
o mesh
v -0.20312500000000006 0.703125 0.23580500000000004
v 0.20312499999999994 0.703125 0.23580500000000004
v -0.203125 0.296875 0.2358050000000001
v 0.203125 0.29687500000000006 0.2358050000000001
v -0.20312500000000006 0.703125 -0.170445
v 0.20312499999999994 0.703125 -0.170445
v -0.203125 0.29687499999999994 -0.17044499999999996
v 0.203125 0.296875 -0.17044499999999996
vt 0.375 0.375
vt 0.1875 0.375
vt 0.1875 0.1875
vt 0.375 0.1875
vt 0.75 0.1875
vt 0.75 0.375
vt 0.5625 0.375
vt 0.5625 0.1875
vt 0 0
vt 0.1875 0
vt 0.1875 0.1875
vt 0 0.1875
vt 0.375 0.1875
vt 0.1875 0.1875
vt 0.1875 0
vt 0.375 0
vt 0.1875 0.1875
vt 0.1875 0.375
vt 0 0.375
vt 0 0.1875
vt 0.5625 0.375
vt 0.375 0.375
vt 0.375 0.1875
vt 0.5625 0.1875
vn 0 1.2246467991473532e-16 1
vn 0 -1.2246467991473532e-16 -1
vn -1.2246467991473532e-16 1 -1.2246467991473532e-16
vn 1.2246467991473532e-16 -1 1.2246467991473532e-16
vn -1 -1.2246467991473532e-16 1.4997597826618576e-32
vn 1 1.2246467991473532e-16 -1.4997597826618576e-32
usemtl m_5696b5e2-53a1-fe64-6f3a-8aadcb512ece
f 58/153/39 57/154/39 59/155/39 60/156/39
f 63/157/40 61/158/40 62/159/40 64/160/40
f 61/161/41 57/162/41 58/163/41 62/164/41
f 60/165/42 59/166/42 63/167/42 64/168/42
f 59/169/43 57/170/43 61/171/43 63/172/43
f 62/173/44 58/174/44 60/175/44 64/176/44
o plane
v -0.3642764726483184 0.6875 -0.08159709764831849
v -0.18749977735168155 0.6875 0.0951795976483184
v -0.3642764726483184 0.3125 -0.0815970976483184
v -0.18749977735168155 0.3125 0.09517959764831849
vt 0.0625 1
vt 0.1875 1
vt 0.1875 0.8125
vt 0.0625 0.8125
vn 0.7071067811865476 -1.570092458683775e-16 -0.7071067811865475
usemtl m_5696b5e2-53a1-fe64-6f3a-8aadcb512ece
f 65/177/45 66/178/45 68/179/45 67/180/45
o plane
v 0.3642764726483184 0.6875 -0.08159709764831849
v 0.18749977735168155 0.6875 0.0951795976483184
v 0.3642764726483184 0.3125 -0.0815970976483184
v 0.18749977735168155 0.3125 0.09517959764831849
vt 0.1875 0.8125
vt 0.1875 1
vt 0.0625 1
vt 0.0625 0.8125
vn -0.7071067811865476 -1.570092458683775e-16 -0.7071067811865475
usemtl m_5696b5e2-53a1-fe64-6f3a-8aadcb512ece
f 72/181/46 70/182/46 69/183/46 71/184/46