# Made in Blockbench 5.1.1
mtllib plushie_baa.mtl

o mesh
v 0.171875 0.6875 -0.1875000000000001
v 0.17187500000000006 0.6875 0.1874999999999999
v 0.171875 0.3125 -0.18750000000000003
v 0.17187500000000006 0.31250000000000006 0.18749999999999997
v -0.203125 0.6875 -0.18750000000000003
v -0.2031249999999999 0.6875 0.18749999999999997
v -0.203125 0.3125 -0.18749999999999994
v -0.2031249999999999 0.31250000000000006 0.18750000000000006
vt 0.1875 0.625
vt 0.1875 0.8125
vt 0.375 0.8125
vt 0.375 0.625
vt 0.5625 0.8125
vt 0.75 0.8125
vt 0.75 0.625
vt 0.5625 0.625
vt 0.375 1
vt 0.375 0.8125
vt 0.1875 0.8125
vt 0.1875 1
vt 0.1875 0.4375
vt 0.1875 0.625
vt 0.375 0.625
vt 0.375 0.4375
vt 0 0.8125
vt 0.1875 0.8125
vt 0.1875 0.625
vt 0 0.625
vt 0.375 0.625
vt 0.375 0.8125
vt 0.5625 0.8125
vt 0.5625 0.625
vn 1 -5.231532787941648e-32 -2.220446049250313e-16
vn -1 5.231532787941648e-32 2.220446049250313e-16
vn -3.0115213031032457e-33 1 -2.356072911435054e-16
vn 3.0115213031032457e-33 -1 2.356072911435054e-16
vn -2.220446049250313e-16 -2.356072911435054e-16 -1
vn 2.220446049250313e-16 2.356072911435054e-16 1
usemtl m_5696b5e2-53a1-fe64-6f3a-8aadcb512ece
f 3/1/1 1/2/1 2/3/1 4/4/1
f 6/5/2 5/6/2 7/7/2 8/8/2
f 2/9/3 1/10/3 5/11/3 6/12/3
f 7/13/4 3/14/4 4/15/4 8/16/4
f 5/17/5 1/18/5 3/19/5 7/20/5
f 4/21/6 2/22/6 6/23/6 8/24/6
o mesh
v 0.078125 0.3125 -0.125
v 0.07812500000000006 0.31250000000000006 0.125
v 0.078125 0 -0.12499999999999993
v 0.07812500000000006 5.551115123125783e-17 0.12500000000000008
v -0.109375 0.3125 -0.12499999999999996
v -0.10937499999999994 0.31250000000000006 0.12500000000000003
v -0.109375 0 -0.12499999999999989
v -0.10937499999999994 5.551115123125783e-17 0.1250000000000001
vt 0.5 0.84375
vt 0.5 1
vt 0.625 1
vt 0.625 0.84375
vt 0.71875 1
vt 0.84375 1
vt 0.84375 0.84375
vt 0.71875 0.84375
vt 0.9375 1
vt 0.9375 0.875
vt 0.84375 0.875
vt 0.84375 1
vt 0.84375 0.875
vt 0.9375 0.875
vt 0.9375 0.75
vt 0.84375 0.75
vt 0.40625 1
vt 0.5 1
vt 0.5 0.84375
vt 0.40625 0.84375
vt 0.625 0.84375
vt 0.625 1
vt 0.71875 1
vt 0.71875 0.84375
vn 1 -5.231532787941648e-32 -2.220446049250313e-16
vn -1 5.231532787941648e-32 2.220446049250313e-16
vn -3.0115213031032457e-33 1 -2.356072911435054e-16
vn 3.0115213031032457e-33 -1 2.356072911435054e-16
vn -2.220446049250313e-16 -2.356072911435054e-16 -1
vn 2.220446049250313e-16 2.356072911435054e-16 1
usemtl m_5696b5e2-53a1-fe64-6f3a-8aadcb512ece
f 11/25/7 9/26/7 10/27/7 12/28/7
f 14/29/8 13/30/8 15/31/8 16/32/8
f 10/33/9 9/34/9 13/35/9 14/36/9
f 15/37/10 11/38/10 12/39/10 16/40/10
f 13/41/11 9/42/11 11/43/11 15/44/11
f 12/45/12 10/46/12 14/47/12 16/48/12
o mesh
v 0.20278007415470672 0.128125 -0.18662300469637308
v 0.250615503200343 0.128125 -0.07113806313246225
v 0.20278007415470672 0.003124999999999989 -0.18662300469637302
v 0.250615503200343 0.003124999999999989 -0.07113806313246222
v 0.02955266180884046 0.125 -0.11486986112791867
v 0.07738809085447673 0.125 0.0006150804359921595
v 0.029552661808840468 0 -0.11486986112791864
v 0.07738809085447673 0 0.0006150804359921873
vt 0.40625 0.4375
vt 0.40625 0.5
vt 0.46875 0.5
vt 0.46875 0.4375
vt 0.40625 0.4375
vt 0.46875 0.4375
vt 0.46875 0.375
vt 0.40625 0.375
vt 0.40625 0.59375
vt 0.46875 0.59375
vt 0.46875 0.5
vt 0.40625 0.5
vt 0.46875 0.59375
vt 0.46875 0.5
vt 0.53125 0.5
vt 0.53125 0.59375
vt 0.53125 0.5
vt 0.53125 0.59375
vt 0.46875 0.59375
vt 0.46875 0.5
vt 0.46875 0.59375
vt 0.53125 0.59375
vt 0.53125 0.5
vt 0.46875 0.5
vn 0.9238795325112866 -8.628166150854817e-32 -0.38268343236509017
vn -0.9238795325112866 8.628166150854817e-32 0.38268343236509017
vn -0.015395854043933165 0.9998611400396 0.00637717154931353
vn 0.015395854043933165 -0.9998611400396 -0.00637717154931353
vn -0.38268343236509017 -2.356072911435053e-16 -0.9238795325112866
vn 0.38268343236509017 2.356072911435053e-16 0.9238795325112866
usemtl m_5696b5e2-53a1-fe64-6f3a-8aadcb512ece
f 19/49/13 17/50/13 18/51/13 20/52/13
f 22/53/14 21/54/14 23/55/14 24/56/14
f 18/57/15 17/58/15 21/59/15 22/60/15
f 23/61/16 19/62/16 20/63/16 24/64/16
f 21/65/17 17/66/17 19/67/17 23/68/17
f 20/69/18 18/70/18 22/71/18 24/72/18
o mesh
v 0.046874999999999986 0.3125 -0.21875
v 0.046875000000000014 0.3125 -0.09375
v 0.046874999999999986 0.12499999999999994 -0.21874999999999994
v 0.046875000000000014 0.125 -0.09374999999999996
v -0.07812500000000003 0.3125 -0.21874999999999997
v -0.078125 0.3125 -0.09374999999999997
v -0.07812500000000003 0.12499999999999994 -0.21874999999999992
v -0.078125 0.125 -0.09374999999999993
vt 0.53125 0.5
vt 0.53125 0.59375
vt 0.59375 0.59375
vt 0.59375 0.5
vt 0.59375 0.59375
vt 0.65625 0.59375
vt 0.65625 0.5
vt 0.59375 0.5
vt 0.59375 0.5
vt 0.59375 0.4375
vt 0.53125 0.4375
vt 0.53125 0.5
vt 0.53125 0.4375
vt 0.59375 0.4375
vt 0.59375 0.375
vt 0.53125 0.375
vt 0.59375 0.59375
vt 0.65625 0.59375
vt 0.65625 0.5
vt 0.59375 0.5
vt 0.59375 0.5
vt 0.59375 0.59375
vt 0.65625 0.59375
vt 0.65625 0.5
vn 1 -5.231532787941648e-32 -2.220446049250313e-16
vn -1 5.231532787941648e-32 2.220446049250313e-16
vn -3.0115213031032457e-33 1 -2.356072911435054e-16
vn 3.0115213031032457e-33 -1 2.356072911435054e-16
vn -2.220446049250313e-16 -2.356072911435054e-16 -1
vn 2.220446049250313e-16 2.356072911435054e-16 1
usemtl m_5696b5e2-53a1-fe64-6f3a-8aadcb512ece
f 27/73/19 25/74/19 26/75/19 28/76/19
f 30/77/20 29/78/20 31/79/20 32/80/20
f 26/81/21 25/82/21 29/83/21 30/84/21
f 31/85/22 27/86/22 28/87/22 32/88/22
f 29/89/23 25/90/23 27/91/23 31/92/23
f 28/93/24 26/94/24 30/95/24 32/96/24
o mesh
v 0.046875000000000056 0.31250000000000006 0.09375
v 0.04687500000000008 0.31250000000000006 0.21875
v 0.046875000000000056 0.125 0.09375000000000004
v 0.04687500000000008 0.12500000000000006 0.21875000000000006
v -0.07812499999999994 0.31250000000000006 0.09375000000000003
v -0.07812499999999992 0.31250000000000006 0.21875000000000003
v -0.07812499999999994 0.125 0.09375000000000007
v -0.07812499999999992 0.12500000000000006 0.21875000000000008
vt 0.53125 0.5
vt 0.53125 0.59375
vt 0.59375 0.59375
vt 0.59375 0.5
vt 0.59375 0.59375
vt 0.65625 0.59375
vt 0.65625 0.5
vt 0.59375 0.5
vt 0.59375 0.4375
vt 0.59375 0.5
vt 0.53125 0.5
vt 0.53125 0.4375
vt 0.53125 0.375
vt 0.59375 0.375
vt 0.59375 0.4375
vt 0.53125 0.4375
vt 0.59375 0.59375
vt 0.65625 0.59375
vt 0.65625 0.5
vt 0.59375 0.5
vt 0.59375 0.5
vt 0.59375 0.59375
vt 0.65625 0.59375
vt 0.65625 0.5
vn 1 -5.231532787941648e-32 -2.220446049250313e-16
vn -1 5.231532787941648e-32 2.220446049250313e-16
vn -3.0115213031032457e-33 1 -2.356072911435054e-16
vn 3.0115213031032457e-33 -1 2.356072911435054e-16
vn -2.220446049250313e-16 -2.356072911435054e-16 -1
vn 2.220446049250313e-16 2.356072911435054e-16 1
usemtl m_5696b5e2-53a1-fe64-6f3a-8aadcb512ece
f 35/97/25 33/98/25 34/99/25 36/100/25
f 38/101/26 37/102/26 39/103/26 40/104/26
f 34/105/27 33/106/27 37/107/27 38/108/27
f 39/109/28 35/110/28 36/111/28 40/112/28
f 37/113/29 33/114/29 35/115/29 39/116/29
f 36/117/30 34/118/30 38/119/30 40/120/30
o plane
v -0.01562500000000029 0.875 -0.09375000000000003
v -0.015625000000000264 0.875 0.09374999999999997
v -0.015625000000000167 0.6875 -0.09375000000000003
v -0.01562500000000014 0.6875 0.09374999999999997
vt 0.0933465625 0.90585
vt 0 0.9066534375
vt 0.0004034375 1
vt 0.09415 0.9995965625
vn -1 -6.661338147750939e-16 1.1102230246251562e-16
usemtl m_5696b5e2-53a1-fe64-6f3a-8aadcb512ece
f 44/121/31 42/122/31 41/123/31 43/124/31
o mesh
v 0.25061539851309167 0.128125 0.07113803558227472
v 0.20277996946745547 0.128125 0.18662297714618556
v 0.25061539851309167 0.003124999999999989 0.07113803558227472
v 0.20277996946745547 0.003124999999999989 0.18662297714618556
v 0.07738798616722546 0.125 -0.0006151079861796416
v 0.029552557121589225 0.125 0.1148698335777312
v 0.07738798616722546 0 -0.0006151079861796416
v 0.029552557121589232 0 0.1148698335777312
vt 0.40625 0.4375
vt 0.40625 0.5
vt 0.46875 0.5
vt 0.46875 0.4375
vt 0.40625 0.4375
vt 0.46875 0.4375
vt 0.46875 0.375
vt 0.40625 0.375
vt 0.40625 0.59375
vt 0.46875 0.59375
vt 0.46875 0.5
vt 0.40625 0.5
vt 0.53125 0.59375
vt 0.53125 0.5
vt 0.46875 0.5
vt 0.46875 0.59375
vt 0.53125 0.5
vt 0.53125 0.59375
vt 0.46875 0.59375
vt 0.46875 0.5
vt 0.46875 0.59375
vt 0.53125 0.59375
vt 0.53125 0.5
vt 0.46875 0.5
vn 0.9238795325112866 4.6865204053263e-17 0.38268343236508984
vn -0.9238795325112866 -4.6865204053263e-17 -0.38268343236508984
vn -0.015395854043933125 0.9998611400396 -0.006377171549313753
vn 0.015395854043933125 -0.9998611400396 0.006377171549313753
vn 0.38268343236508984 9.32206868596529e-18 -0.9238795325112866
vn -0.38268343236508984 -9.32206868596529e-18 0.9238795325112866
usemtl m_5696b5e2-53a1-fe64-6f3a-8aadcb512ece
f 47/125/32 45/126/32 46/127/32 48/128/32
f 50/129/33 49/130/33 51/131/33 52/132/33
f 46/133/34 45/134/34 49/135/34 50/136/34
f 51/137/35 47/138/35 48/139/35 52/140/35
f 49/141/36 45/142/36 47/143/36 51/144/36
f 48/145/37 46/146/37 50/147/37 52/148/37
o plane
v 0.17187499999999975 0.8125 -0.18750000000000003
v 0.17187499999999978 0.8125 -0.06250000000000003
v 0.17187499999999983 0.6875 -0.18750000000000003
v 0.17187499999999983 0.6875 -0.06250000000000003
vt 0.09375 0.78125
vt 0.09375 0.84375
vt 0.03125 0.84375
vt 0.03125 0.78125
vn -1 -6.661338147750939e-16 1.1102230246251562e-16
usemtl m_5696b5e2-53a1-fe64-6f3a-8aadcb512ece
f 56/149/38 54/150/38 53/151/38 55/152/38
o plane
v 0.17187499999999994 0.75 -0.18750000000000017
v 0.046874999999999924 0.7499999999999999 -0.18750000000000017
v 0.17187499999999994 0.6875 -0.18750000000000014
v 0.04687499999999995 0.6874999999999999 -0.18750000000000014
vt 0.03125 0.78125
vt 0.03125 0.8125
vt 0.09375 0.8125
vt 0.09375 0.78125
vn 1.2246467991473532e-16 -4.4408920985006257e-16 -1
usemtl m_5696b5e2-53a1-fe64-6f3a-8aadcb512ece
f 60/153/39 58/154/39 57/155/39 59/156/39
o plane
v 0.1718749999999996 0.8125 -0.0625000000000005
v 0.17187499999999972 0.8124999999999999 -0.18750000000000047
v 0.17187499999999978 0.6875 -0.0625000000000003
v 0.1718749999999999 0.6874999999999999 -0.1875000000000003
vt 0.03125 0.78125
vt 0.03125 0.84375
vt 0.09375 0.84375
vt 0.09375 0.78125
vn 1 1.3322676295501892e-15 9.99200722162639e-16
usemtl m_5696b5e2-53a1-fe64-6f3a-8aadcb512ece
f 64/157/40 62/158/40 61/159/40 63/160/40
o plane
v 0.046874999999999854 0.7499999999999998 -0.1875000000000004
v 0.17187499999999983 0.7499999999999998 -0.18750000000000042
v 0.0468749999999999 0.6874999999999998 -0.18750000000000033
v 0.1718749999999999 0.6874999999999998 -0.18750000000000036
vt 0.09375 0.78125
vt 0.09375 0.8125
vt 0.03125 0.8125
vt 0.03125 0.78125
vn 2.0855459520273988e-16 1.1102230246251567e-15 1
usemtl m_5696b5e2-53a1-fe64-6f3a-8aadcb512ece
f 68/161/41 66/162/41 65/163/41 67/164/41
o plane
v -0.015625000000000652 0.875 0.09374999999999922
v -0.015625000000000458 0.8749999999999998 -0.09375000000000078
v -0.015625000000000402 0.6875 0.09374999999999949
v -0.015625000000000208 0.6874999999999998 -0.09375000000000051
vt 0.0933465625 1
vt 0 0.9991965625
vt 0.0004034375 0.90585
vt 0.09415 0.9062534375
vn 1 1.3322676295501892e-15 9.99200722162639e-16
usemtl m_5696b5e2-53a1-fe64-6f3a-8aadcb512ece
f 72/165/42 70/166/42 69/167/42 71/168/42