# Made in Blockbench 5.1.1
mtllib plushie_phos.mtl

o mesh
v 0.17214546766244598 0.6875 -0.18750000000000014
v 0.17214546766244604 0.6875 0.18749999999999986
v 0.17214546766244598 0.31249999999999994 -0.18750000000000006
v 0.17214546766244604 0.31250000000000006 0.18749999999999994
v -0.20285453233755402 0.6875 -0.18750000000000006
v -0.2028545323375539 0.6875 0.18749999999999994
v -0.20285453233755402 0.31249999999999994 -0.18749999999999997
v -0.2028545323375539 0.31250000000000006 0.18750000000000003
vt 0.1875 0.625
vt 0.1875 0.8125
vt 0.375 0.8125
vt 0.375 0.625
vt 0.5625 0.8125
vt 0.75 0.8125
vt 0.75 0.625
vt 0.5625 0.625
vt 0.375 1
vt 0.375 0.8125
vt 0.1875 0.8125
vt 0.1875 1
vt 0.1875 0.4375
vt 0.1875 0.625
vt 0.375 0.625
vt 0.375 0.4375
vt 0 0.8125
vt 0.1875 0.8125
vt 0.1875 0.625
vt 0 0.625
vt 0.375 0.625
vt 0.375 0.8125
vt 0.5625 0.8125
vt 0.5625 0.625
vn 1 -5.231532787941648e-32 -2.220446049250313e-16
vn -1 5.231532787941648e-32 2.220446049250313e-16
vn -3.0115213031032457e-33 1 -2.356072911435054e-16
vn 3.0115213031032457e-33 -1 2.356072911435054e-16
vn -2.220446049250313e-16 -2.356072911435054e-16 -1
vn 2.220446049250313e-16 2.356072911435054e-16 1
usemtl m_5696b5e2-53a1-fe64-6f3a-8aadcb512ece
f 3/1/1 1/2/1 2/3/1 4/4/1
f 6/5/2 5/6/2 7/7/2 8/8/2
f 2/9/3 1/10/3 5/11/3 6/12/3
f 7/13/4 3/14/4 4/15/4 8/16/4
f 5/17/5 1/18/5 3/19/5 7/20/5
f 4/21/6 2/22/6 6/23/6 8/24/6
o mesh
v 0.07839546766244598 0.3125 -0.12500000000000003
v 0.07839546766244604 0.31250000000000006 0.12499999999999996
v 0.07839546766244598 -5.551115123125783e-17 -0.12499999999999996
v 0.07839546766244604 5.551115123125783e-17 0.12500000000000003
v -0.10910453233755402 0.3125 -0.12499999999999999
v -0.10910453233755396 0.31250000000000006 0.125
v -0.10910453233755402 -5.551115123125783e-17 -0.12499999999999992
v -0.10910453233755396 5.551115123125783e-17 0.12500000000000006
vt 0.5 0.84375
vt 0.5 1
vt 0.625 1
vt 0.625 0.84375
vt 0.71875 1
vt 0.84375 1
vt 0.84375 0.84375
vt 0.71875 0.84375
vt 0.9375 1
vt 0.9375 0.875
vt 0.84375 0.875
vt 0.84375 1
vt 0.84375 0.875
vt 0.9375 0.875
vt 0.9375 0.75
vt 0.84375 0.75
vt 0.40625 1
vt 0.5 1
vt 0.5 0.84375
vt 0.40625 0.84375
vt 0.625 0.84375
vt 0.625 1
vt 0.71875 1
vt 0.71875 0.84375
vn 1 -5.231532787941648e-32 -2.220446049250313e-16
vn -1 5.231532787941648e-32 2.220446049250313e-16
vn -3.0115213031032457e-33 1 -2.356072911435054e-16
vn 3.0115213031032457e-33 -1 2.356072911435054e-16
vn -2.220446049250313e-16 -2.356072911435054e-16 -1
vn 2.220446049250313e-16 2.356072911435054e-16 1
usemtl m_5696b5e2-53a1-fe64-6f3a-8aadcb512ece
f 11/25/7 9/26/7 10/27/7 12/28/7
f 14/29/8 13/30/8 15/31/8 16/32/8
f 10/33/9 9/34/9 13/35/9 14/36/9
f 15/37/10 11/38/10 12/39/10 16/40/10
f 13/41/11 9/42/11 11/43/11 15/44/11
f 12/45/12 10/46/12 14/47/12 16/48/12
o mesh
v 0.20305052398766887 0.128125 -0.1866228616214983
v 0.2508859530333052 0.12812500000000002 -0.07113792005758748
v 0.2030505239876689 0.0031249999999999334 -0.18662286162149824
v 0.2508859530333052 0.003124999999999989 -0.07113792005758746
v 0.029823111641802694 0.12499999999999997 -0.1148697180530438
v 0.07765854068743902 0.125 0.0006152235108670108
v 0.029823111641802708 -5.551115123125783e-17 -0.11486971805304377
v 0.07765854068743903 0 0.0006152235108670386
vt 0.40625 0.4375
vt 0.40625 0.5
vt 0.46875 0.5
vt 0.46875 0.4375
vt 0.40625 0.4375
vt 0.46875 0.4375
vt 0.46875 0.375
vt 0.40625 0.375
vt 0.40625 0.59375
vt 0.46875 0.59375
vt 0.46875 0.5
vt 0.40625 0.5
vt 0.46875 0.5
vt 0.46875 0.59375
vt 0.53125 0.59375
vt 0.53125 0.5
vt 0.53125 0.5
vt 0.53125 0.59375
vt 0.46875 0.59375
vt 0.46875 0.5
vt 0.46875 0.59375
vt 0.53125 0.59375
vt 0.53125 0.5
vt 0.46875 0.5
vn 0.9238795325112864 -8.628166150854817e-32 -0.3826834323650906
vn -0.9238795325112864 8.628166150854817e-32 0.3826834323650906
vn -0.015395854043933298 0.9998611400396 0.006377171549313595
vn 0.015395854043933161 -0.9998611400396 -0.006377171549313537
vn -0.3826834323650906 -2.3560729114350525e-16 -0.9238795325112864
vn 0.3826834323650906 2.3560729114350525e-16 0.9238795325112864
usemtl m_5696b5e2-53a1-fe64-6f3a-8aadcb512ece
f 19/49/13 17/50/13 18/51/13 20/52/13
f 22/53/14 21/54/14 23/55/14 24/56/14
f 18/57/15 17/58/15 21/59/15 22/60/15
f 23/61/16 19/62/16 20/63/16 24/64/16
f 21/65/17 17/66/17 19/67/17 23/68/17
f 20/69/18 18/70/18 22/71/18 24/72/18
o mesh
v 0.04714546766244597 0.31249999999999994 -0.21875000000000003
v 0.047145467662446 0.3125 -0.09375000000000004
v 0.04714546766244597 0.12499999999999994 -0.21875
v 0.047145467662446 0.12499999999999997 -0.09374999999999999
v -0.07785453233755404 0.31249999999999994 -0.21875
v -0.07785453233755402 0.3125 -0.09375000000000001
v -0.07785453233755404 0.12499999999999994 -0.21874999999999997
v -0.07785453233755402 0.12499999999999997 -0.09374999999999996
vt 0.53125 0.5
vt 0.53125 0.59375
vt 0.59375 0.59375
vt 0.59375 0.5
vt 0.59375 0.59375
vt 0.65625 0.59375
vt 0.65625 0.5
vt 0.59375 0.5
vt 0.59375 0.5
vt 0.59375 0.4375
vt 0.53125 0.4375
vt 0.53125 0.5
vt 0.53125 0.4375
vt 0.59375 0.4375
vt 0.59375 0.375
vt 0.53125 0.375
vt 0.59375 0.59375
vt 0.65625 0.59375
vt 0.65625 0.5
vt 0.59375 0.5
vt 0.59375 0.5
vt 0.59375 0.59375
vt 0.65625 0.59375
vt 0.65625 0.5
vn 1 -5.231532787941648e-32 -2.220446049250313e-16
vn -1 5.231532787941648e-32 2.220446049250313e-16
vn -3.0115213031032457e-33 1 -2.356072911435054e-16
vn 3.0115213031032457e-33 -1 2.356072911435054e-16
vn -2.220446049250313e-16 -2.356072911435054e-16 -1
vn 2.220446049250313e-16 2.356072911435054e-16 1
usemtl m_5696b5e2-53a1-fe64-6f3a-8aadcb512ece
f 27/73/19 25/74/19 26/75/19 28/76/19
f 30/77/20 29/78/20 31/79/20 32/80/20
f 26/81/21 25/82/21 29/83/21 30/84/21
f 31/85/22 27/86/22 28/87/22 32/88/22
f 29/89/23 25/90/23 27/91/23 31/92/23
f 28/93/24 26/94/24 30/95/24 32/96/24
o mesh
v 0.04714546766244604 0.31250000000000006 0.09374999999999996
v 0.04714546766244607 0.31250000000000006 0.21874999999999997
v 0.04714546766244604 0.12500000000000003 0.09375000000000001
v 0.04714546766244607 0.12500000000000006 0.21875
v -0.07785453233755396 0.31250000000000006 0.09374999999999999
v -0.07785453233755393 0.31250000000000006 0.21875
v -0.07785453233755396 0.12500000000000003 0.09375000000000004
v -0.07785453233755393 0.12500000000000006 0.21875000000000003
vt 0.53125 0.5
vt 0.53125 0.59375
vt 0.59375 0.59375
vt 0.59375 0.5
vt 0.59375 0.59375
vt 0.65625 0.59375
vt 0.65625 0.5
vt 0.59375 0.5
vt 0.59375 0.4375
vt 0.59375 0.5
vt 0.53125 0.5
vt 0.53125 0.4375
vt 0.53125 0.375
vt 0.59375 0.375
vt 0.59375 0.4375
vt 0.53125 0.4375
vt 0.59375 0.59375
vt 0.65625 0.59375
vt 0.65625 0.5
vt 0.59375 0.5
vt 0.59375 0.5
vt 0.59375 0.59375
vt 0.65625 0.59375
vt 0.65625 0.5
vn 1 -5.231532787941648e-32 -2.220446049250313e-16
vn -1 5.231532787941648e-32 2.220446049250313e-16
vn -3.0115213031032457e-33 1 -2.356072911435054e-16
vn 3.0115213031032457e-33 -1 2.356072911435054e-16
vn -2.220446049250313e-16 -2.356072911435054e-16 -1
vn 2.220446049250313e-16 2.356072911435054e-16 1
usemtl m_5696b5e2-53a1-fe64-6f3a-8aadcb512ece
f 35/97/25 33/98/25 34/99/25 36/100/25
f 38/101/26 37/102/26 39/103/26 40/104/26
f 34/105/27 33/106/27 37/107/27 38/108/27
f 39/109/28 35/110/28 36/111/28 40/112/28
f 37/113/29 33/114/29 35/115/29 39/116/29
f 36/117/30 34/118/30 38/119/30 40/120/30
o mesh
v 0.2508859530333053 0.12812500000000002 0.0711379200575873
v 0.20305052398766904 0.12812500000000002 0.18662286162149813
v 0.2508859530333053 0.003124999999999989 0.0711379200575873
v 0.20305052398766904 0.003124999999999989 0.18662286162149813
v 0.07765854068743902 0.125 -0.0006152235108670429
v 0.029823111641802784 0.125 0.11486971805304379
v 0.07765854068743902 0 -0.0006152235108670421
v 0.02982311164180279 0 0.11486971805304379
vt 0.40625 0.4375
vt 0.40625 0.5
vt 0.46875 0.5
vt 0.46875 0.4375
vt 0.40625 0.4375
vt 0.46875 0.4375
vt 0.46875 0.375
vt 0.40625 0.375
vt 0.40625 0.59375
vt 0.46875 0.59375
vt 0.46875 0.5
vt 0.40625 0.5
vt 0.53125 0.5
vt 0.53125 0.59375
vt 0.46875 0.59375
vt 0.46875 0.5
vt 0.53125 0.5
vt 0.53125 0.59375
vt 0.46875 0.59375
vt 0.46875 0.5
vt 0.46875 0.59375
vt 0.53125 0.59375
vt 0.53125 0.5
vt 0.46875 0.5
vn 0.9238795325112866 4.6865204053263e-17 0.38268343236508984
vn -0.9238795325112866 -4.6865204053263e-17 -0.38268343236508984
vn -0.015395854043933262 0.9998611400396 -0.006377171549313811
vn 0.015395854043933125 -0.9998611400396 0.006377171549313753
vn 0.38268343236508984 9.32206868596529e-18 -0.9238795325112866
vn -0.38268343236508984 -9.32206868596529e-18 0.9238795325112866
usemtl m_5696b5e2-53a1-fe64-6f3a-8aadcb512ece
f 43/121/31 41/122/31 42/123/31 44/124/31
f 46/125/32 45/126/32 47/127/32 48/128/32
f 42/129/33 41/130/33 45/131/33 46/132/33
f 47/133/34 43/134/34 44/135/34 48/136/34
f 45/137/35 41/138/35 43/139/35 47/140/35
f 44/141/36 42/142/36 46/143/36 48/144/36
o mesh
v 0.18777046766244596 0.703125 -0.20312500000000017
v 0.18777046766244607 0.703125 0.20312499999999983
v 0.18777046766244596 0.29687499999999994 -0.20312500000000006
v 0.18777046766244607 0.29687500000000006 0.20312499999999994
v -0.21847953233755402 0.703125 -0.20312500000000008
v -0.2184795323375539 0.703125 0.20312499999999992
v -0.21847953233755402 0.29687499999999994 -0.20312499999999997
v -0.2184795323375539 0.29687500000000006 0.20312500000000003
vt 0.1875 0.1875
vt 0.1875 0.375
vt 0.375 0.375
vt 0.375 0.1875
vt 0.5625 0.375
vt 0.75 0.375
vt 0.75 0.1875
vt 0.5625 0.1875
vt 0.1875 0.1875
vt 0.1875 0
vt 0 0
vt 0 0.1875
vt 0.1875 0
vt 0.1875 0.1875
vt 0.375 0.1875
vt 0.375 0
vt 0 0.375
vt 0.1875 0.375
vt 0.1875 0.1875
vt 0 0.1875
vt 0.375 0.1875
vt 0.375 0.375
vt 0.5625 0.375
vt 0.5625 0.1875
vn 1 -5.231532787941648e-32 -2.220446049250313e-16
vn -1 5.231532787941648e-32 2.220446049250313e-16
vn -3.0115213031032457e-33 1 -2.356072911435054e-16
vn 3.0115213031032457e-33 -1 2.356072911435054e-16
vn -2.220446049250313e-16 -2.356072911435054e-16 -1
vn 2.220446049250313e-16 2.356072911435054e-16 1
usemtl m_5696b5e2-53a1-fe64-6f3a-8aadcb512ece
f 51/145/37 49/146/37 50/147/37 52/148/37
f 54/149/38 53/150/38 55/151/38 56/152/38
f 50/153/39 49/154/39 53/155/39 54/156/39
f 55/157/40 51/158/40 52/159/40 56/160/40
f 53/161/41 49/162/41 51/163/41 55/164/41
f 52/165/42 50/166/42 54/167/42 56/168/42