# Made in Blockbench 5.0.7
mtllib plushie_phos.mtl

o mesh
v -0.18750000000000006 0.6875 0.2192911427385909
v 0.18749999999999994 0.6875 0.2192911427385909
v -0.1875 0.3125 0.21929114273859096
v 0.1875 0.31250000000000006 0.21929114273859096
v -0.18750000000000006 0.6875 -0.1557088572614091
v 0.18749999999999994 0.6875 -0.1557088572614091
v -0.1875 0.31249999999999994 -0.15570885726140904
v 0.1875 0.3125 -0.15570885726140904
vt 0.375 0.8125
vt 0.1875 0.8125
vt 0.1875 0.625
vt 0.375 0.625
vt 0.75 0.625
vt 0.75 0.8125
vt 0.5625 0.8125
vt 0.5625 0.625
vt 0.1875 0.8125
vt 0.375 0.8125
vt 0.375 1
vt 0.1875 1
vt 0.375 0.625
vt 0.1875 0.625
vt 0.1875 0.4375
vt 0.375 0.4375
vt 0.1875 0.625
vt 0.1875 0.8125
vt 0 0.8125
vt 0 0.625
vt 0.5625 0.8125
vt 0.375 0.8125
vt 0.375 0.625
vt 0.5625 0.625
vn -4.276761053246676e-33 1.2246467991473532e-16 1
vn 4.276761053246676e-33 -1.2246467991473532e-16 -1
vn -1.2246467991473532e-16 1 -1.2246467991473532e-16
vn 1.2246467991473532e-16 -1 1.2246467991473532e-16
vn -1 -1.2246467991473532e-16 1.07208367733719e-32
vn 1 1.2246467991473532e-16 -1.07208367733719e-32
usemtl m_5696b5e2-53a1-fe64-6f3a-8aadcb512ece
f 2/1/1 1/2/1 3/3/1 4/4/1
f 7/5/2 5/6/2 6/7/2 8/8/2
f 5/9/3 1/10/3 2/11/3 6/12/3
f 4/13/4 3/14/4 7/15/4 8/16/4
f 3/17/5 1/18/5 5/19/5 7/20/5
f 6/21/6 2/22/6 4/23/6 8/24/6
o mesh
v -0.125 0.3125 0.12554114273859096
v 0.125 0.3125 0.12554114273859096
v -0.12499999999999997 0 0.125541142738591
v 0.12500000000000003 0 0.125541142738591
v -0.125 0.31249999999999994 -0.06195885726140904
v 0.125 0.3125 -0.06195885726140904
v -0.12499999999999997 0 -0.06195885726140901
v 0.12500000000000003 0 -0.06195885726140901
vt 0.625 1
vt 0.5 1
vt 0.5 0.84375
vt 0.625 0.84375
vt 0.84375 0.84375
vt 0.84375 1
vt 0.71875 1
vt 0.71875 0.84375
vt 0.84375 0.875
vt 0.9375 0.875
vt 0.9375 1
vt 0.84375 1
vt 0.9375 0.75
vt 0.9375 0.875
vt 0.84375 0.875
vt 0.84375 0.75
vt 0.5 0.84375
vt 0.5 1
vt 0.40625 1
vt 0.40625 0.84375
vt 0.71875 1
vt 0.625 1
vt 0.625 0.84375
vt 0.71875 0.84375
vn -4.276761053246676e-33 1.2246467991473532e-16 1
vn 4.276761053246676e-33 -1.2246467991473532e-16 -1
vn -1.2246467991473532e-16 1 -1.2246467991473532e-16
vn 1.2246467991473532e-16 -1 1.2246467991473532e-16
vn -1 -1.2246467991473532e-16 1.07208367733719e-32
vn 1 1.2246467991473532e-16 -1.07208367733719e-32
usemtl m_5696b5e2-53a1-fe64-6f3a-8aadcb512ece
f 10/25/7 9/26/7 11/27/7 12/28/7
f 15/29/8 13/30/8 14/31/8 16/32/8
f 13/33/9 9/34/9 10/35/9 14/36/9
f 12/37/10 11/38/10 15/39/10 16/40/10
f 11/41/11 9/42/11 13/43/11 15/44/11
f 14/45/12 10/46/12 12/47/12 16/48/12
o mesh
v -0.18662280717520485 0.128125 0.2501959916501151
v -0.07113786561129401 0.12812500000000002 0.2980314206957513
v -0.18662280717520485 0.003124999999999989 0.2501959916501151
v -0.071137865611294 0.003124999999999989 0.2980314206957513
v -0.11486966360675054 0.12499999999999997 0.07696857930424877
v 0.0006152779571603206 0.125 0.12480400834988499
v -0.11486966360675052 0 0.0769685793042488
v 0.0006152779571603354 0 0.124804008349885
vt 0.46875 0.5
vt 0.40625 0.5
vt 0.40625 0.4375
vt 0.46875 0.4375
vt 0.46875 0.375
vt 0.46875 0.4375
vt 0.40625 0.4375
vt 0.40625 0.375
vt 0.46875 0.5
vt 0.46875 0.59375
vt 0.40625 0.59375
vt 0.40625 0.5
vt 0.53125 0.59375
vt 0.46875 0.59375
vt 0.46875 0.5
vt 0.53125 0.5
vt 0.46875 0.59375
vt 0.53125 0.59375
vt 0.53125 0.5
vt 0.46875 0.5
vt 0.53125 0.5
vt 0.53125 0.59375
vt 0.46875 0.59375
vt 0.46875 0.5
vn -0.3826834323650897 1.1314261122877003e-16 0.9238795325112867
vn 0.3826834323650897 -1.1314261122877003e-16 -0.9238795325112867
vn 0.006377171549313628 0.9998611400396 -0.015395854043933246
vn -0.006377171549313628 -0.9998611400396 0.015395854043933246
vn -0.9238795325112867 -1.6932988396799826e-16 -0.3826834323650897
vn 0.9238795325112867 1.6932988396799826e-16 0.3826834323650897
usemtl m_5696b5e2-53a1-fe64-6f3a-8aadcb512ece
f 18/49/13 17/50/13 19/51/13 20/52/13
f 23/53/14 21/54/14 22/55/14 24/56/14
f 21/57/15 17/58/15 18/59/15 22/60/15
f 20/61/16 19/62/16 23/63/16 24/64/16
f 19/65/17 17/66/17 21/67/17 23/68/17
f 22/69/18 18/70/18 20/71/18 24/72/18
o mesh
v -0.21875 0.31249999999999994 0.09429114273859096
v -0.09375 0.3125 0.09429114273859096
v -0.21874999999999997 0.12499999999999997 0.09429114273859097
v -0.09374999999999999 0.125 0.09429114273859097
v -0.21875 0.31249999999999994 -0.03070885726140904
v -0.09375 0.3125 -0.03070885726140904
v -0.21874999999999997 0.12499999999999994 -0.03070885726140901
v -0.09374999999999999 0.12499999999999997 -0.03070885726140901
vt 0.59375 0.59375
vt 0.53125 0.59375
vt 0.53125 0.5
vt 0.59375 0.5
vt 0.65625 0.5
vt 0.65625 0.59375
vt 0.59375 0.59375
vt 0.59375 0.5
vt 0.53125 0.4375
vt 0.59375 0.4375
vt 0.59375 0.5
vt 0.53125 0.5
vt 0.59375 0.375
vt 0.59375 0.4375
vt 0.53125 0.4375
vt 0.53125 0.375
vt 0.65625 0.5
vt 0.65625 0.59375
vt 0.59375 0.59375
vt 0.59375 0.5
vt 0.65625 0.59375
vt 0.59375 0.59375
vt 0.59375 0.5
vt 0.65625 0.5
vn -4.276761053246676e-33 1.2246467991473532e-16 1
vn 4.276761053246676e-33 -1.2246467991473532e-16 -1
vn -1.2246467991473532e-16 1 -1.2246467991473532e-16
vn 1.2246467991473532e-16 -1 1.2246467991473532e-16
vn -1 -1.2246467991473532e-16 1.07208367733719e-32
vn 1 1.2246467991473532e-16 -1.07208367733719e-32
usemtl m_5696b5e2-53a1-fe64-6f3a-8aadcb512ece
f 26/73/19 25/74/19 27/75/19 28/76/19
f 31/77/20 29/78/20 30/79/20 32/80/20
f 29/81/21 25/82/21 26/83/21 30/84/21
f 28/85/22 27/86/22 31/87/22 32/88/22
f 27/89/23 25/90/23 29/91/23 31/92/23
f 30/93/24 26/94/24 28/95/24 32/96/24
o mesh
v 0.09375 0.3125 0.09429114273859096
v 0.21875 0.3125 0.09429114273859096
v 0.09375000000000001 0.125 0.09429114273859097
v 0.21875000000000003 0.12500000000000003 0.09429114273859097
v 0.09375 0.3125 -0.03070885726140904
v 0.21875 0.3125 -0.03070885726140904
v 0.09375000000000001 0.12499999999999997 -0.03070885726140901
v 0.21875000000000003 0.125 -0.03070885726140901
vt 0.59375 0.59375
vt 0.53125 0.59375
vt 0.53125 0.5
vt 0.59375 0.5
vt 0.65625 0.5
vt 0.65625 0.59375
vt 0.59375 0.59375
vt 0.59375 0.5
vt 0.53125 0.5
vt 0.59375 0.5
vt 0.59375 0.4375
vt 0.53125 0.4375
vt 0.59375 0.4375
vt 0.59375 0.375
vt 0.53125 0.375
vt 0.53125 0.4375
vt 0.65625 0.5
vt 0.65625 0.59375
vt 0.59375 0.59375
vt 0.59375 0.5
vt 0.65625 0.59375
vt 0.59375 0.59375
vt 0.59375 0.5
vt 0.65625 0.5
vn -4.276761053246676e-33 1.2246467991473532e-16 1
vn 4.276761053246676e-33 -1.2246467991473532e-16 -1
vn -1.2246467991473532e-16 1 -1.2246467991473532e-16
vn 1.2246467991473532e-16 -1 1.2246467991473532e-16
vn -1 -1.2246467991473532e-16 1.07208367733719e-32
vn 1 1.2246467991473532e-16 -1.07208367733719e-32
usemtl m_5696b5e2-53a1-fe64-6f3a-8aadcb512ece
f 34/97/25 33/98/25 35/99/25 36/100/25
f 39/101/26 37/102/26 38/103/26 40/104/26
f 37/105/27 33/106/27 34/107/27 38/108/27
f 36/109/28 35/110/28 39/111/28 40/112/28
f 35/113/29 33/114/29 37/115/29 39/116/29
f 38/117/30 34/118/30 36/119/30 40/120/30
o mesh
v 0.07113786561129405 0.12812500000000002 0.2980314206957513
v 0.1866228071752049 0.12812500000000002 0.2501959916501151
v 0.07113786561129407 0.003124999999999989 0.2980314206957513
v 0.1866228071752049 0.003124999999999989 0.2501959916501151
v -0.0006152779571602851 0.125 0.12480400834988498
v 0.11486966360675056 0.125 0.07696857930424875
v -0.0006152779571602703 0 0.12480400834988499
v 0.11486966360675058 0 0.07696857930424876
vt 0.46875 0.5
vt 0.40625 0.5
vt 0.40625 0.4375
vt 0.46875 0.4375
vt 0.46875 0.375
vt 0.46875 0.4375
vt 0.40625 0.4375
vt 0.40625 0.375
vt 0.46875 0.5
vt 0.46875 0.59375
vt 0.40625 0.59375
vt 0.40625 0.5
vt 0.46875 0.59375
vt 0.53125 0.59375
vt 0.53125 0.5
vt 0.46875 0.5
vt 0.46875 0.59375
vt 0.53125 0.59375
vt 0.53125 0.5
vt 0.46875 0.5
vt 0.53125 0.5
vt 0.53125 0.59375
vt 0.46875 0.59375
vt 0.46875 0.5
vn 0.3826834323650898 1.1314261122877005e-16 0.9238795325112867
vn -0.3826834323650898 -1.1314261122877005e-16 -0.9238795325112867
vn -0.006377171549313854 0.9998611400396 -0.015395854043933153
vn 0.006377171549313854 -0.9998611400396 0.015395854043933153
vn -0.9238795325112867 -7.559947586147235e-17 0.3826834323650898
vn 0.9238795325112867 7.559947586147235e-17 -0.3826834323650898
usemtl m_5696b5e2-53a1-fe64-6f3a-8aadcb512ece
f 42/121/31 41/122/31 43/123/31 44/124/31
f 47/125/32 45/126/32 46/127/32 48/128/32
f 45/129/33 41/130/33 42/131/33 46/132/33
f 44/133/34 43/134/34 47/135/34 48/136/34
f 43/137/35 41/138/35 45/139/35 47/140/35
f 46/141/36 42/142/36 44/143/36 48/144/36
o mesh
v -0.20312500000000006 0.703125 0.2349161427385909
v 0.20312499999999994 0.703125 0.2349161427385909
v -0.203125 0.296875 0.23491614273859096
v 0.203125 0.29687500000000006 0.23491614273859096
v -0.20312500000000006 0.703125 -0.1713338572614091
v 0.20312499999999994 0.703125 -0.1713338572614091
v -0.203125 0.29687499999999994 -0.17133385726140904
v 0.203125 0.296875 -0.17133385726140904
vt 0.375 0.375
vt 0.1875 0.375
vt 0.1875 0.1875
vt 0.375 0.1875
vt 0.75 0.1875
vt 0.75 0.375
vt 0.5625 0.375
vt 0.5625 0.1875
vt 0 0
vt 0.1875 0
vt 0.1875 0.1875
vt 0 0.1875
vt 0.375 0.1875
vt 0.1875 0.1875
vt 0.1875 0
vt 0.375 0
vt 0.1875 0.1875
vt 0.1875 0.375
vt 0 0.375
vt 0 0.1875
vt 0.5625 0.375
vt 0.375 0.375
vt 0.375 0.1875
vt 0.5625 0.1875
vn -4.276761053246676e-33 1.2246467991473532e-16 1
vn 4.276761053246676e-33 -1.2246467991473532e-16 -1
vn -1.2246467991473532e-16 1 -1.2246467991473532e-16
vn 1.2246467991473532e-16 -1 1.2246467991473532e-16
vn -1 -1.2246467991473532e-16 1.07208367733719e-32
vn 1 1.2246467991473532e-16 -1.07208367733719e-32
usemtl m_5696b5e2-53a1-fe64-6f3a-8aadcb512ece
f 50/145/37 49/146/37 51/147/37 52/148/37
f 55/149/38 53/150/38 54/151/38 56/152/38
f 53/153/39 49/154/39 50/155/39 54/156/39
f 52/157/40 51/158/40 55/159/40 56/160/40
f 51/161/41 49/162/41 53/163/41 55/164/41
f 54/165/42 50/166/42 52/167/42 56/168/42