# Made in Blockbench 5.1.1
mtllib plushie_ozy.mtl

o mesh
v 0.175 0.6875 -0.18750000000000008
v 0.17500000000000004 0.6875 0.18749999999999992
v 0.175 0.31249999999999994 -0.1875
v 0.17500000000000004 0.31250000000000006 0.1875
v -0.20000000000000004 0.6875 -0.1875
v -0.19999999999999993 0.6875 0.1875
v -0.20000000000000004 0.31249999999999994 -0.18749999999999992
v -0.19999999999999993 0.31250000000000006 0.18750000000000008
vt 0.1875 0.625
vt 0.1875 0.8125
vt 0.375 0.8125
vt 0.375 0.625
vt 0.5625 0.8125
vt 0.75 0.8125
vt 0.75 0.625
vt 0.5625 0.625
vt 0.375 1
vt 0.375 0.8125
vt 0.1875 0.8125
vt 0.1875 1
vt 0.1875 0.4375
vt 0.1875 0.625
vt 0.375 0.625
vt 0.375 0.4375
vt 0 0.8125
vt 0.1875 0.8125
vt 0.1875 0.625
vt 0 0.625
vt 0.375 0.625
vt 0.375 0.8125
vt 0.5625 0.8125
vt 0.5625 0.625
vn 1 -5.231532787941648e-32 -2.220446049250313e-16
vn -1 5.231532787941648e-32 2.220446049250313e-16
vn -3.0115213031032457e-33 1 -2.356072911435054e-16
vn 3.0115213031032457e-33 -1 2.356072911435054e-16
vn -2.220446049250313e-16 -2.356072911435054e-16 -1
vn 2.220446049250313e-16 2.356072911435054e-16 1
usemtl m_5696b5e2-53a1-fe64-6f3a-8aadcb512ece
f 3/1/1 1/2/1 2/3/1 4/4/1
f 6/5/2 5/6/2 7/7/2 8/8/2
f 2/9/3 1/10/3 5/11/3 6/12/3
f 7/13/4 3/14/4 4/15/4 8/16/4
f 5/17/5 1/18/5 3/19/5 7/20/5
f 4/21/6 2/22/6 6/23/6 8/24/6
o mesh
v 0.08124999999999999 0.3125 -0.12499999999999997
v 0.08125000000000004 0.3125 0.12500000000000003
v 0.08124999999999999 -5.551115123125783e-17 -0.1249999999999999
v 0.08125000000000004 5.551115123125783e-17 0.1250000000000001
v -0.10625000000000001 0.3125 -0.12499999999999993
v -0.10624999999999996 0.3125 0.12500000000000006
v -0.10625000000000001 -5.551115123125783e-17 -0.12499999999999986
v -0.10624999999999996 5.551115123125783e-17 0.12500000000000017
vt 0.5 0.84375
vt 0.5 1
vt 0.625 1
vt 0.625 0.84375
vt 0.71875 1
vt 0.84375 1
vt 0.84375 0.84375
vt 0.71875 0.84375
vt 0.9375 1
vt 0.9375 0.875
vt 0.84375 0.875
vt 0.84375 1
vt 0.84375 0.875
vt 0.9375 0.875
vt 0.9375 0.75
vt 0.84375 0.75
vt 0.40625 1
vt 0.5 1
vt 0.5 0.84375
vt 0.40625 0.84375
vt 0.625 0.84375
vt 0.625 1
vt 0.71875 1
vt 0.71875 0.84375
vn 1 -5.231532787941648e-32 -2.220446049250313e-16
vn -1 5.231532787941648e-32 2.220446049250313e-16
vn -3.0115213031032457e-33 1 -2.356072911435054e-16
vn 3.0115213031032457e-33 -1 2.356072911435054e-16
vn -2.220446049250313e-16 -2.356072911435054e-16 -1
vn 2.220446049250313e-16 2.356072911435054e-16 1
usemtl m_5696b5e2-53a1-fe64-6f3a-8aadcb512ece
f 11/25/7 9/26/7 10/27/7 12/28/7
f 14/29/8 13/30/8 15/31/8 16/32/8
f 10/33/9 9/34/9 13/35/9 14/36/9
f 15/37/10 11/38/10 12/39/10 16/40/10
f 13/41/11 9/42/11 11/43/11 15/44/11
f 12/45/12 10/46/12 14/47/12 16/48/12
o mesh
v 0.20590502181108106 0.12812499999999993 -0.1866229909212793
v 0.25374045085671737 0.128125 -0.07113804935736846
v 0.20590502181108108 0.0031249999999999334 -0.18662299092127926
v 0.25374045085671737 0.003124999999999989 -0.07113804935736844
v 0.032677609465214814 0.12499999999999994 -0.11486984735282489
v 0.08051303851085109 0.125 0.000615094211085937
v 0.03267760946521483 -5.551115123125783e-17 -0.11486984735282486
v 0.08051303851085109 0 0.0006150942110859642
vt 0.40625 0.4375
vt 0.40625 0.5
vt 0.46875 0.5
vt 0.46875 0.4375
vt 0.40625 0.4375
vt 0.46875 0.4375
vt 0.46875 0.375
vt 0.40625 0.375
vt 0.46875 0.59375
vt 0.40625 0.59375
vt 0.40625 0.5
vt 0.46875 0.5
vt 0.46875 0.5
vt 0.46875 0.59375
vt 0.53125 0.59375
vt 0.53125 0.5
vt 0.53125 0.5
vt 0.53125 0.59375
vt 0.46875 0.59375
vt 0.46875 0.5
vt 0.46875 0.59375
vt 0.53125 0.59375
vt 0.53125 0.5
vt 0.46875 0.5
vn 0.9238795325112866 -8.628166150854817e-32 -0.38268343236509017
vn -0.9238795325112866 8.628166150854817e-32 0.38268343236509017
vn -0.015395854043933165 0.9998611400396 0.00637717154931353
vn 0.015395854043933165 -0.9998611400396 -0.00637717154931353
vn -0.38268343236509017 -2.356072911435053e-16 -0.9238795325112866
vn 0.38268343236509017 2.356072911435053e-16 0.9238795325112866
usemtl m_5696b5e2-53a1-fe64-6f3a-8aadcb512ece
f 19/49/13 17/50/13 18/51/13 20/52/13
f 22/53/14 21/54/14 23/55/14 24/56/14
f 18/57/15 17/58/15 21/59/15 22/60/15
f 23/61/16 19/62/16 20/63/16 24/64/16
f 21/65/17 17/66/17 19/67/17 23/68/17
f 20/69/18 18/70/18 22/71/18 24/72/18
o mesh
v 0.04999999999999997 0.31249999999999994 -0.21874999999999997
v 0.049999999999999996 0.3125 -0.09374999999999997
v 0.04999999999999997 0.12499999999999994 -0.21874999999999992
v 0.049999999999999996 0.125 -0.09374999999999992
v -0.07500000000000004 0.31249999999999994 -0.21874999999999994
v -0.07500000000000001 0.3125 -0.09374999999999994
v -0.07500000000000004 0.12499999999999994 -0.2187499999999999
v -0.07500000000000001 0.125 -0.09374999999999989
vt 0.53125 0.5
vt 0.53125 0.59375
vt 0.59375 0.59375
vt 0.59375 0.5
vt 0.59375 0.59375
vt 0.65625 0.59375
vt 0.65625 0.5
vt 0.59375 0.5
vt 0.59375 0.5
vt 0.59375 0.4375
vt 0.53125 0.4375
vt 0.53125 0.5
vt 0.53125 0.4375
vt 0.59375 0.4375
vt 0.59375 0.375
vt 0.53125 0.375
vt 0.59375 0.59375
vt 0.65625 0.59375
vt 0.65625 0.5
vt 0.59375 0.5
vt 0.59375 0.5
vt 0.59375 0.59375
vt 0.65625 0.59375
vt 0.65625 0.5
vn 1 -5.231532787941648e-32 -2.220446049250313e-16
vn -1 5.231532787941648e-32 2.220446049250313e-16
vn -3.0115213031032457e-33 1 -2.356072911435054e-16
vn 3.0115213031032457e-33 -1 2.356072911435054e-16
vn -2.220446049250313e-16 -2.356072911435054e-16 -1
vn 2.220446049250313e-16 2.356072911435054e-16 1
usemtl m_5696b5e2-53a1-fe64-6f3a-8aadcb512ece
f 27/73/19 25/74/19 26/75/19 28/76/19
f 30/77/20 29/78/20 31/79/20 32/80/20
f 26/81/21 25/82/21 29/83/21 30/84/21
f 31/85/22 27/86/22 28/87/22 32/88/22
f 29/89/23 25/90/23 27/91/23 31/92/23
f 28/93/24 26/94/24 30/95/24 32/96/24
o mesh
v 0.05000000000000004 0.3125 0.09375000000000003
v 0.050000000000000065 0.31250000000000006 0.21875000000000003
v 0.05000000000000004 0.125 0.09375000000000008
v 0.050000000000000065 0.12500000000000006 0.21875000000000008
v -0.07499999999999996 0.3125 0.09375000000000006
v -0.07499999999999993 0.31250000000000006 0.21875000000000006
v -0.07499999999999996 0.125 0.09375000000000011
v -0.07499999999999993 0.12500000000000006 0.2187500000000001
vt 0.59375 0.5
vt 0.59375 0.59375
vt 0.53125 0.59375
vt 0.53125 0.5
vt 0.59375 0.59375
vt 0.65625 0.59375
vt 0.65625 0.5
vt 0.59375 0.5
vt 0.59375 0.4375
vt 0.59375 0.5
vt 0.53125 0.5
vt 0.53125 0.4375
vt 0.53125 0.375
vt 0.59375 0.375
vt 0.59375 0.4375
vt 0.53125 0.4375
vt 0.59375 0.59375
vt 0.65625 0.59375
vt 0.65625 0.5
vt 0.59375 0.5
vt 0.59375 0.5
vt 0.59375 0.59375
vt 0.65625 0.59375
vt 0.65625 0.5
vn 1 -5.231532787941648e-32 -2.220446049250313e-16
vn -1 5.231532787941648e-32 2.220446049250313e-16
vn -3.0115213031032457e-33 1 -2.356072911435054e-16
vn 3.0115213031032457e-33 -1 2.356072911435054e-16
vn -2.220446049250313e-16 -2.356072911435054e-16 -1
vn 2.220446049250313e-16 2.356072911435054e-16 1
usemtl m_5696b5e2-53a1-fe64-6f3a-8aadcb512ece
f 35/97/25 33/98/25 34/99/25 36/100/25
f 38/101/26 37/102/26 39/103/26 40/104/26
f 34/105/27 33/106/27 37/107/27 38/108/27
f 39/109/28 35/110/28 36/111/28 40/112/28
f 37/113/29 33/114/29 35/115/29 39/116/29
f 36/117/30 34/118/30 38/119/30 40/120/30
o mesh
v 0.25374045085671737 0.128125 0.0711380493573684
v 0.2059050218110812 0.128125 0.18662299092127926
v 0.25374045085671737 0.003124999999999989 0.0711380493573684
v 0.20590502181108122 0.003124999999999989 0.18662299092127926
v 0.08051303851085106 0.125 -0.0006150942110858652
v 0.0326776094652149 0.125 0.114869847352825
v 0.08051303851085108 0 -0.0006150942110858641
v 0.032677609465214905 0 0.114869847352825
vt 0.40625 0.4375
vt 0.40625 0.5
vt 0.46875 0.5
vt 0.46875 0.4375
vt 0.40625 0.4375
vt 0.46875 0.4375
vt 0.46875 0.375
vt 0.40625 0.375
vt 0.40625 0.59375
vt 0.46875 0.59375
vt 0.46875 0.5
vt 0.40625 0.5
vt 0.53125 0.5
vt 0.53125 0.59375
vt 0.46875 0.59375
vt 0.46875 0.5
vt 0.53125 0.5
vt 0.53125 0.59375
vt 0.46875 0.59375
vt 0.46875 0.5
vt 0.46875 0.59375
vt 0.53125 0.59375
vt 0.53125 0.5
vt 0.46875 0.5
vn 0.923879532511287 4.686520405326295e-17 0.3826834323650894
vn -0.923879532511287 -4.686520405326295e-17 -0.3826834323650894
vn -0.015395854043933127 0.9998611400396 -0.006377171549313745
vn 0.015395854043933127 -0.9998611400396 0.006377171549313745
vn 0.3826834323650894 9.322068685965264e-18 -0.923879532511287
vn -0.3826834323650894 -9.322068685965264e-18 0.923879532511287
usemtl m_5696b5e2-53a1-fe64-6f3a-8aadcb512ece
f 43/121/31 41/122/31 42/123/31 44/124/31
f 46/125/32 45/126/32 47/127/32 48/128/32
f 42/129/33 41/130/33 45/131/33 46/132/33
f 47/133/34 43/134/34 44/135/34 48/136/34
f 45/137/35 41/138/35 43/139/35 47/140/35
f 44/141/36 42/142/36 46/143/36 48/144/36
o mesh
v 0.190625 0.703125 -0.20312500000000008
v 0.19062500000000004 0.703125 0.20312499999999992
v 0.190625 0.29687499999999994 -0.203125
v 0.19062500000000004 0.29687500000000006 0.203125
v -0.21562500000000004 0.703125 -0.203125
v -0.21562499999999993 0.703125 0.203125
v -0.21562500000000004 0.29687499999999994 -0.20312499999999992
v -0.21562499999999993 0.29687500000000006 0.20312500000000008
vt 0.1875 0.1875
vt 0.1875 0.375
vt 0.375 0.375
vt 0.375 0.1875
vt 0.5625 0.375
vt 0.75 0.375
vt 0.75 0.1875
vt 0.5625 0.1875
vt 0.1875 0.1875
vt 0.1875 0
vt 0 0
vt 0 0.1875
vt 0.1875 0
vt 0.1875 0.1875
vt 0.375 0.1875
vt 0.375 0
vt 0 0.375
vt 0.1875 0.375
vt 0.1875 0.1875
vt 0 0.1875
vt 0.375 0.1875
vt 0.375 0.375
vt 0.5625 0.375
vt 0.5625 0.1875
vn 1 -5.231532787941648e-32 -2.220446049250313e-16
vn -1 5.231532787941648e-32 2.220446049250313e-16
vn -3.0115213031032457e-33 1 -2.356072911435054e-16
vn 3.0115213031032457e-33 -1 2.356072911435054e-16
vn -2.220446049250313e-16 -2.356072911435054e-16 -1
vn 2.220446049250313e-16 2.356072911435054e-16 1
usemtl m_5696b5e2-53a1-fe64-6f3a-8aadcb512ece
f 51/145/37 49/146/37 50/147/37 52/148/37
f 54/149/38 53/150/38 55/151/38 56/152/38
f 50/153/39 49/154/39 53/155/39 54/156/39
f 55/157/40 51/158/40 52/159/40 56/160/40
f 53/161/41 49/162/41 51/163/41 55/164/41
f 52/165/42 50/166/42 54/167/42 56/168/42
o plane
v 0.1749999999999998 0.37499999999999994 -0.25000000000000006
v 0.17499999999999977 0.43749999999999994 -0.2500000000000001
v 0.17499999999999985 0.37499999999999994 -0.18750000000000006
v 0.17499999999999982 0.43749999999999994 -0.18750000000000008
vt 0.128125 0.715625
vt 0.153125 0.715625
vt 0.153125 0.690625
vt 0.128125 0.690625
vn -1 -4.996003610813199e-16 9.99200722162641e-16
usemtl m_5696b5e2-53a1-fe64-6f3a-8aadcb512ece
f 60/169/43 58/170/43 57/171/43 59/172/43
o plane
v -0.024934958792314346 0.6078668282768028 0.011657499999999987
v 0.002068178149157343 0.9165140958564504 0.05244687500000004
v -0.027067986651384893 0.5834862082843799 0.1975531249999999
v -0.00006484970991321726 0.8921334758640275 0.2383425
vt 0 1
vt 0.09375 1
vt 0.09375 0.84375
vt 0 0.84375
vn -0.9961946980917455 0.08715574274765844 -1.8733284885182743e-16
usemtl m_5696b5e2-53a1-fe64-6f3a-8aadcb512ece
f 64/173/44 62/174/44 61/175/44 63/176/44
o plane
v -0.027068071269837846 0.5834861834353914 0.19755311718236052
v -0.00006493488397277258 0.8921334446644194 0.23834254060436605
v -0.024935065116025557 0.6078665553355806 0.011657459395634954
v 0.0020680712698395165 0.9165138165646087 0.05244688281764043
vt 0.09375 1
vt 0 1
vt 0 0.84375
vt 0.09375 0.84375
vn 0.9961946980917454 -0.08715574274766015 -1.6514567491299204e-15
usemtl m_5696b5e2-53a1-fe64-6f3a-8aadcb512ece
f 68/177/45 66/178/45 65/179/45 67/180/45
o plane
v -0.018141266967078518 0.6275579502113138 -0.200567141602945
v 0.022299215256861613 0.9321781354286269 -0.2573770012724165
v -0.014946829477709436 0.6615180127452236 -0.016195886463160666
v 0.025493652746230694 0.9661381979625367 -0.07300574613263211
vt 0.09375 1
vt 0 1
vt 0 0.84375
vt 0.09375 0.84375
vn -0.9914448601829973 0.1303473153976309 -0.006831294558715523
usemtl m_5696b5e2-53a1-fe64-6f3a-8aadcb512ece
f 72/181/46 70/182/46 69/183/46 71/184/46
o plane
v -0.014946829477709672 0.6615180127452236 -0.01619588646316112
v 0.02549365274623004 0.9661381979625365 -0.07300574613263323
v -0.018141266967078906 0.6275579502113133 -0.2005671416029454
v 0.022299215256860794 0.9321781354286264 -0.25737700127241747
vt 0 1
vt 0.09375 1
vt 0.09375 0.84375
vt 0 0.84375
vn 0.9914448601829973 -0.1303473153976297 0.006831294558714694
usemtl m_5696b5e2-53a1-fe64-6f3a-8aadcb512ece
f 76/185/47 74/186/47 73/187/47 75/188/47
o plane
v 0.17500000000000016 0.37499999999999994 -0.1874999999999999
v 0.17500000000000007 0.43749999999999994 -0.18749999999999994
v 0.1750000000000002 0.3749999999999999 -0.2499999999999999
v 0.1750000000000001 0.4374999999999999 -0.24999999999999994
vt 0.128125 0.715625
vt 0.153125 0.715625
vt 0.153125 0.690625
vt 0.128125 0.690625
vn 1 1.443289932012704e-15 4.4408920985006124e-16
usemtl m_5696b5e2-53a1-fe64-6f3a-8aadcb512ece
f 80/189/48 78/190/48 77/191/48 79/192/48
o plane
v 0.1750000000000003 0.37500000000000017 0.18749999999999994
v 0.17500000000000027 0.43750000000000017 0.18749999999999992
v 0.17500000000000035 0.37500000000000017 0.24999999999999994
v 0.17500000000000032 0.43750000000000017 0.24999999999999992
vt 0.128125 0.715625
vt 0.153125 0.715625
vt 0.153125 0.690625
vt 0.128125 0.690625
vn -1 -4.996003610813199e-16 9.99200722162641e-16
usemtl m_5696b5e2-53a1-fe64-6f3a-8aadcb512ece
f 84/193/49 82/194/49 81/195/49 83/196/49
o plane
v 0.175 0.3750000000000004 0.25000000000000006
v 0.17499999999999988 0.4375000000000004 0.25
v 0.175 0.37500000000000033 0.18750000000000006
v 0.1749999999999999 0.43750000000000033 0.1875
vt 0.128125 0.715625
vt 0.153125 0.715625
vt 0.153125 0.690625
vt 0.128125 0.690625
vn 1 1.443289932012704e-15 4.4408920985006124e-16
usemtl m_5696b5e2-53a1-fe64-6f3a-8aadcb512ece
f 88/197/50 86/198/50 85/199/50 87/200/50